<svg viewBox="0 0 64 64" xmlns="http://www.w3.org/2000/svg"><path d="M60 35c-.76 0-1.47.29-2 .77a2.984 2.984 0 00-4 0c-.53-.48-1.24-.77-2-.77-.35 0-.69.06-1 .18V28c0-1.65-1.35-3-3-3s-3 1.35-3 3v13h-1c-1.65 0-3 1.35-3 3v3c0 .17.05.34.13.5l1.94 3.39c-.33-.13-.66-.23-1.01-.31L32 48.21v-3.95c4.5-2.38 7.65-6.99 7.97-12.35A5.01 5.01 0 0044 27c0-.75-.17-1.47-.49-2.14.29-.18.49-.5.49-.86v-6c0-7.44-5.83-13.54-13.16-13.98A3.021 3.021 0 0028 2H17C9.28 2 3 8.28 3 16v1a8 8 0 004.05 6.95C6.37 24.82 6 25.89 6 27a5.01 5.01 0 004.03 4.91c.32 5.36 3.47 9.97 7.97 12.35v3.95L7.94 50.58A8.957 8.957 0 001 59.34V61c0 .55.45 1 1 1h60c.55 0 1-.45 1-1V38c0-1.65-1.35-3-3-3zm-5 3c0-.55.45-1 1-1s1 .45 1 1v4c0 .55-.45 1-1 1s-1-.45-1-1zm-4 0c0-.55.45-1 1-1s1 .45 1 1v4c0 .55-.45 1-1 1s-1-.45-1-1zm-4-10c0-.55.45-1 1-1s1 .45 1 1v13h-2zm-7 1.82V25h1.23a3 3 0 01.77 2 3 3 0 01-2 2.82zm-30 0a2.99 2.99 0 01-1.12-4.94c.04-.05.09-.09.14-.13.32.08.65.15.98.19zM5 17v-1C5 9.38 10.38 4 17 4h11c.55 0 1 .45 1 1s.45 1 1 1c6.62 0 12 5.38 12 12v5h-3c-4.41 0-8-3.59-8-8 0-1.65-1.35-3-3-3-.55 0-1 .45-1 1 0 .12-.04 3-2 3h-7.1c-1.6 0-2.9 1.31-2.9 3 0 2.21-1.79 4-4 4-3.31 0-6-2.69-6-6zm7 14v-6.09c2.84-.47 5-2.95 5-5.99 0-.51.4-.92.9-.92H25c2.4 0 3.46-1.89 3.83-3.55.11.16.17.35.17.55 0 5.17 3.96 9.45 9 9.95V31c0 7.17-5.83 13-13 13s-13-5.83-13-13zm13 22.42l1.08 1.08L25 55.59l-1.08-1.09zm0-2.54l-5-2.5v-3.24c1.56.56 3.24.86 5 .86s3.44-.3 5-.86v3.24zM3 60v-.66c0-3.27 2.22-6.07 5.4-6.82l2.19-.51 2.27 2.26-.81 2.41c-.16.49.07 1.03.54 1.23l4.7 2.09zm11.24-3.54l.71-2.14c.12-.36.03-.76-.24-1.03l-1.83-1.83 5.39-1.26 2.26 9.05zm7.9.96l-.23-.91.59-.59.1.1zm-.8-3.18l-.84-3.38 2.81 1.41zM23.39 60l.8-2.39.1.1c.2.19.45.29.71.29s.51-.1.71-.29l.1-.1.8 2.39zm4.47-2.58l-.46-1.4.1-.1.59.59zm-1.17-5.15l2.81-1.41-.84 3.38zm5.04-2.07l5.39 1.26-1.83 1.83c-.27.27-.36.67-.24 1.03l.71 2.14-6.29 2.79zM45 60H32.71l4.7-2.09c.47-.2.7-.74.54-1.23l-.81-2.41 2.27-2.26 2.19.51c1.32.32 2.49.99 3.4 1.94zm16 0H47v-6c0-.17-.05-.34-.13-.5L43 46.73V44c0-.55.45-1 1-1h4.83c-.41 1.16-1.53 2-2.83 2h-1v2h1c1.85 0 3.46-1 4.33-2.5.48.31 1.06.5 1.67.5.76 0 1.47-.29 2-.77a2.984 2.984 0 004 0c.53.48 1.24.77 2 .77.35 0 .69-.06 1-.18zm0-18c0 .55-.45 1-1 1s-1-.45-1-1v-4c0-.55.45-1 1-1s1 .45 1 1z"/><circle cx="19" cy="28" r="2"/><circle cx="31" cy="28" r="2"/><path d="M29.77 34.639l-1.54-1.277C27.354 34.418 26.207 35 25 35s-2.354-.582-3.23-1.639l-1.54 1.277C21.493 36.161 23.187 37 25 37s3.507-.839 4.77-2.361zM52 8h5v1.219l-3.243.812A.998.998 0 0053 11v2h2v-1.219l3.243-.812A1 1 0 0059 10V7a1 1 0 00-1-1h-7a1 1 0 00-1 1v2h2zm1 7h2v2h-2z"/><path d="M62 2H47a1 1 0 00-1 1v17a1 1 0 001 1h5v3a1 1 0 001.555.832L59.303 21H62a1 1 0 001-1V3a1 1 0 00-1-1zm-1 17h-2c-.197 0-.391.059-.555.168L54 22.132V20a1 1 0 00-1-1h-5V4h13z"/></svg>