<svg viewBox="0 0 64 64" xmlns="http://www.w3.org/2000/svg"><path d="M63 23v-5.333L53.5 5H39.477l-5.094-3.296c-1.422-.921-3.347-.921-4.767 0L24.523 5H10.5L1 17.667V23h2v32H1v8h62v-8h-2V23zm-14-2v-2h12v2zm-2 40h-2V45h2zM33 51h4v10h-4zm-2 10h-4V51h4zm-6-12v12h-4V45h22v16h-4V49zM3 21v-2h12v2zm33.386 12H41v2.985zM33 31v-4h7.475c.334.94.525 1.947.525 3v1zm0-6v-3.941A9.006 9.006 0 0139.478 25zm-2 0h-6.478A9.008 9.008 0 0131 21.059zm-8 5c0-1.053.191-2.06.525-3H31v4h-8zm0 3h4.614L23 35.986zm7.704.383a2.425 2.425 0 012.593 0L48 42.897V43h-2.717L32 34.826 18.717 43H16v-.103zM41.467 43H22.533L32 37.174zM17 45h2v16h-2zm26-7.721V30c0-6.065-4.935-11-11-11s-11 4.935-11 11v7.28l-4 2.588V15h30v24.868zM22.533 13L32 7.174 41.467 13zM52.5 7L60 17H49v-2h2v-2.544L42.568 7zM30.704 3.383a2.425 2.425 0 012.593 0L48.159 13h-2.876L32 4.826 18.717 13h-2.876zM11.5 7h9.932L13 12.456V15h2v2H4zM15 23v18H5V23zM5 43h8v2h2v10H5zM3 57h12v4H3zm58 4H49v-4h12zm-12-6V45h2v-2h8v12zm10-14H49V23h10z"/><path d="M57 25h-6v6h6zm-2 4h-2v-2h2zM57 39v-6h-6v6zm-4-4h2v2h-2zM13 25H7v6h6zm-2 4H9v-2h2zM13 39v-6H7v6zm-4-4h2v2H9z"/></svg>