<svg xmlns="http://www.w3.org/2000/svg" data-name="Line expand" viewBox="0 0 512 512"><path d="M88 32h296v88h16V48h8v72h16V40a8 8 0 00-8-8h-16v-8a8 8 0 00-8-8H80a8 8 0 00-8 8v144h16zm0 152H72v288a8 8 0 008 8h272v-16H88z"/><path d="M224 184a8 8 0 008-8V56a8 8 0 00-8-8H112a8 8 0 00-8 8v120a8 8 0 008 8zM120 64h96v104h-96zm128 64h120v16H248zm0 40h120v16H248zm-144 40h80v16h-80zm96 0h128v16H200zm-96 40h176v16H104zm0 40h80v16h-80zm96 0h96v16h-96zm96 40h24v16h-24zm-192 0h176v16H104zM368 56a8 8 0 00-8-8H256a8 8 0 00-8 8v40a8 8 0 008 8h104a8 8 0 008-8zm-16 32h-88V64h88zM104 408a40 40 0 1040-40 40.045 40.045 0 00-40 40zm64 0a24 24 0 11-24-24 24.028 24.028 0 0124 24zm32 0a40 40 0 1040-40 40.045 40.045 0 00-40 40zm64 0a24 24 0 11-24-24 24.028 24.028 0 0124 24z"/><path d="M479.589 285.47l-41.162-123.487A37.951 37.951 0 00402.377 136H392a8 8 0 00-8 8v120h-4.155l-4.61-5.763a48 48 0 00-67.467-7.5L299 257.753a8 8 0 00-1.4 11.047l70.4 93.867V488a8 8 0 008 8h72a8 8 0 008-8v-72h-16v64h-56V360a8 8 0 00-1.6-4.8l-67.348-89.8 2.711-2.168a32 32 0 0144.978 5l7.012 8.768a8 8 0 006.247 3h16a8 8 0 008-8V152h2.377a21.973 21.973 0 0120.872 15.043L464 289.3v13.251l-23.491 62.642A8 8 0 00440 368v32h16v-30.549l23.491-62.642A8 8 0 00480 304v-16a8 8 0 00-.411-2.53z"/><path d="M296 384h64v16h-64zm0 32h16v16h-16zm32 0h32v16h-32z"/></svg>