<svg xmlns="http://www.w3.org/2000/svg" viewBox="0 0 512 512"><path d="M414.843 263.5h22.298c3.489 17.265 18.777 30.305 37.055 30.305C495.041 293.805 512 276.846 512 256s-16.959-37.805-37.805-37.805c-18.278 0-33.566 13.04-37.055 30.305h-22.298c-1.783-38.203-17.103-72.927-41.27-99.466l40.164-40.163c7.906 5.757 17.627 9.166 28.134 9.166 26.416 0 47.906-21.491 47.906-47.907s-21.49-47.906-47.906-47.906-47.906 21.491-47.906 47.906c0 10.507 3.408 20.228 9.166 28.134l-40.164 40.163c-26.539-24.166-61.263-39.487-99.466-41.269V74.86c17.265-3.489 30.305-18.777 30.305-37.055C293.805 16.959 276.846 0 256 0s-37.805 16.959-37.805 37.805c0 18.278 13.04 33.566 30.305 37.055v22.297c-38.203 1.783-72.927 17.103-99.466 41.269l-40.161-40.16c5.758-7.907 9.167-17.629 9.167-28.136a47.88 47.88 0 00-21.135-39.737 7.5 7.5 0 00-10.412 2.022 7.5 7.5 0 002.021 10.412 32.898 32.898 0 0114.525 27.303c0 18.146-14.764 32.91-32.91 32.91S37.22 88.276 37.22 70.13c0-14.654 9.835-27.679 23.917-31.674a7.5 7.5 0 00-4.094-14.431C36.539 29.843 22.22 48.802 22.22 70.13c0 26.418 21.492 47.91 47.91 47.91 10.508 0 20.23-3.409 28.136-9.167l40.161 40.16c-24.167 26.539-39.487 61.263-41.27 99.466H74.86c-3.489-17.265-18.777-30.305-37.055-30.305C16.959 218.195 0 235.154 0 256s16.959 37.805 37.805 37.805c18.278 0 33.566-13.04 37.055-30.305h22.298c1.783 38.203 17.103 72.927 41.27 99.466l-40.164 40.163c-7.906-5.757-17.627-9.166-28.134-9.166-26.416 0-47.906 21.491-47.906 47.907s21.49 47.906 47.906 47.906 47.906-21.491 47.906-47.906c0-10.507-3.408-20.228-9.166-28.134l40.164-40.163c26.539 24.166 61.263 39.487 99.466 41.269v22.297c-17.265 3.489-30.305 18.777-30.305 37.055C218.195 495.041 235.154 512 256 512s37.805-16.959 37.805-37.805c0-18.278-13.04-33.566-30.305-37.055v-22.297c38.203-1.783 72.927-17.103 99.466-41.269l40.161 40.16c-5.758 7.907-9.167 17.629-9.167 28.136 0 26.417 21.492 47.91 47.91 47.91s47.91-21.492 47.91-47.91c0-5.186-.826-10.293-2.455-15.182a7.5 7.5 0 10-14.23 4.743 32.96 32.96 0 011.686 10.438c0 18.146-14.764 32.91-32.91 32.91s-32.91-14.763-32.91-32.91 14.764-32.91 32.91-32.91c4.153 0 8.203.764 12.037 2.271a7.501 7.501 0 005.487-13.961 47.714 47.714 0 00-17.523-3.31c-10.508 0-20.23 3.409-28.136 9.167l-40.161-40.16c24.164-26.539 39.485-61.263 41.268-99.466zm59.352-30.305C486.77 233.195 497 243.425 497 256s-10.23 22.805-22.805 22.805S451.39 268.575 451.39 256s10.231-22.805 22.805-22.805zM441.87 37.224c18.145 0 32.906 14.762 32.906 32.906 0 18.145-14.762 32.907-32.906 32.907s-32.906-14.762-32.906-32.907 14.762-32.906 32.906-32.906zm-208.675.581C233.195 25.23 243.426 15 256 15s22.805 10.23 22.805 22.805S268.574 60.61 256 60.61s-22.805-10.231-22.805-22.805zm-195.39 241C25.23 278.805 15 268.575 15 256s10.23-22.805 22.805-22.805S60.609 243.425 60.609 256s-10.23 22.805-22.804 22.805zM256 111.976c79.415 0 144.024 64.609 144.024 144.024S335.415 400.024 256 400.024 111.976 335.416 111.976 256 176.585 111.976 256 111.976zm-185.87 362.8c-18.145 0-32.906-14.762-32.906-32.906 0-18.145 14.762-32.907 32.906-32.907s32.906 14.762 32.906 32.907-14.762 32.906-32.906 32.906zm208.675-.581C278.805 486.77 268.574 497 256 497s-22.805-10.23-22.805-22.805S243.426 451.39 256 451.39s22.805 10.231 22.805 22.805z"/><path d="M171.15 348.35h42.355c.023 0 .045.003.068.003s.045-.003.068-.003H238.5c4.143 0 7.5-3.358 7.5-7.5s-3.357-7.5-7.5-7.5h-17.427v-12.7c0-4.142-3.357-7.5-7.5-7.5s-7.5 3.358-7.5 7.5v12.7H178.65v-36.94c0-18.146 14.759-32.91 32.899-32.91h88.9c18.141 0 32.899 14.764 32.899 32.91v36.94h-27.423v-12.7c0-4.142-3.357-7.5-7.5-7.5s-7.5 3.358-7.5 7.5v12.7H273.5c-4.143 0-7.5 3.358-7.5 7.5s3.357 7.5 7.5 7.5h24.859c.023 0 .045.003.068.003s.045-.003.068-.003h42.355a7.5 7.5 0 007.5-7.5v-44.44c0-26.418-21.487-47.91-47.899-47.91h-5.568c11.738-10.622 19.126-25.968 19.126-43.008 0-31.986-26.022-58.008-58.008-58.008s-58.008 26.022-58.008 58.008c0 17.04 7.388 32.386 19.126 43.008h-5.568c-26.412 0-47.899 21.492-47.899 47.91v44.44a7.497 7.497 0 007.498 7.5zm41.842-142.858c0-23.714 19.293-43.008 43.008-43.008s43.008 19.293 43.008 43.008S279.715 248.5 256 248.5s-43.008-19.293-43.008-43.008z"/></svg>