<svg viewBox="0 0 64 64" xmlns="http://www.w3.org/2000/svg"><path d="M20.293 61.707a1 1 0 001.414 0l4-4a1 1 0 000-1.414L25.415 56l3-2.991H41a1 1 0 00.707-.293l13-13a1 1 0 000-1.414 6.665 6.665 0 00-9.414 0l-3.707 3.708H38v-2.99a3.015 3.015 0 00-3.008-3.011L23.955 36a1 1 0 00-.71.3l-5.955 6.007a1 1 0 00-.29.7V45.6l-1 .993-.295-.3a1 1 0 00-1.414 0l-4 4a1 1 0 000 1.414zM18.7 46.719a1 1 0 00.3-.709v-2.588L24.371 38l10.619.009A1.012 1.012 0 0136 39.02v2.99h-8v2h14a1 1 0 00.707-.293l4-4a4.667 4.667 0 015.8-.63L40.586 51.01H28a1 1 0 00-.706.292L24 54.587 17.416 48zm-3.7 1.7L23.586 57 21 59.586 15.414 54l1.293-1.293-1.414-1.414L14 52.586 12.414 51zM31.989 2h2v2h-2zM27.096 3.368l1.848-.766.766 1.848-1.848.766zM23.086 6.517L24.5 5.103l1.414 1.414L24.5 7.93zM20.603 10.947l.766-1.848 1.848.766-.766 1.848zM42.778 9.86l1.848-.765.766 1.848-1.848.766zM40.056 6.518l1.414-1.414 1.414 1.414-1.414 1.414zM36.283 4.45L37.05 2.6l1.848.766-.766 1.848zM27.989 22.475v1.709A2.971 2.971 0 0026.77 29a2.986 2.986 0 002.219 5h8a2.987 2.987 0 002.22-5 2.972 2.972 0 00-1.22-4.816v-1.709a9 9 0 10-10 0zm9 9.525h-8a1 1 0 010-2h8a1 1 0 110 2zm0-4h-8a1 1 0 010-2h8a1 1 0 010 2zm-4-20a7 7 0 013.5 13.056 1 1 0 00-.5.865V24h-2v-3.586l3.211-3.206a3.12 3.12 0 000-4.415 3.2 3.2 0 00-4.207-.19 3.2 3.2 0 00-4.207.19 3.125 3.125 0 000 4.414l.5.5 1.414-1.414-.5-.5a1.124 1.124 0 010-1.585 1.148 1.148 0 011.586 0l.5.5a1 1 0 001.414 0l.5-.5a1.147 1.147 0 011.586 0 1.119 1.119 0 010 1.585l-3.5 3.5a1 1 0 00-.293.707v4h-2v-2.079a1 1 0 00-.5-.865A7 7 0 0132.989 8z"/></svg>