<svg id="line" height="512" viewBox="0 0 64 64" width="512" xmlns="http://www.w3.org/2000/svg"><path d="m20.293 61.707a1 1 0 0 0 1.414 0l4-4a1 1 0 0 0 0-1.414l-.292-.293 3-2.991h12.585a1 1 0 0 0 .707-.293l13-13a1 1 0 0 0 0-1.414 6.665 6.665 0 0 0 -9.414 0l-3.707 3.708h-3.586v-2.99a3.015 3.015 0 0 0 -3.008-3.011l-11.037-.009a1 1 0 0 0 -.71.3l-5.955 6.007a1 1 0 0 0 -.29.7v2.593l-1 .993-.295-.3a1 1 0 0 0 -1.414 0l-4 4a1 1 0 0 0 0 1.414zm-1.593-14.988a1 1 0 0 0 .3-.709v-2.588l5.371-5.422 10.619.009a1.012 1.012 0 0 1 1.01 1.011v2.99h-8v2h14a1 1 0 0 0 .707-.293l4-4a4.667 4.667 0 0 1 5.8-.63l-11.921 11.923h-12.586a1 1 0 0 0 -.706.292l-3.294 3.285-6.584-6.587zm-3.7 1.7 8.586 8.581-2.586 2.586-5.586-5.586 1.293-1.293-1.414-1.414-1.293 1.293-1.586-1.586z"/><path d="m31.989 2h2v2h-2z"/><path d="m27.397 2.914h2v2h-2z" transform="matrix(.924 -.383 .383 .924 .665 11.169)"/><path d="m23.504 5.515h2v2h-2z" transform="matrix(.707 -.707 .707 .707 2.57 19.235)"/><path d="m20.903 9.408h2v2h-2z" transform="matrix(.383 -.924 .924 .383 3.904 26.658)"/><path d="m43.076 9.408h2v2h-2z" transform="matrix(.924 -.383 .383 .924 -.627 17.666)"/><path d="m40.475 5.515h2v2h-2z" transform="matrix(.707 -.707 .707 .707 7.541 31.235)"/><path d="m36.582 2.914h2v2h-2z" transform="matrix(.383 -.924 .924 .383 19.58 37.135)"/><path d="m27.989 22.475v1.709a2.971 2.971 0 0 0 -1.219 4.816 2.986 2.986 0 0 0 2.219 5h8a2.987 2.987 0 0 0 2.22-5 2.972 2.972 0 0 0 -1.22-4.816v-1.709a9 9 0 1 0 -10 0zm9 9.525h-8a1 1 0 0 1 0-2h8a1 1 0 1 1 0 2zm0-4h-8a1 1 0 0 1 0-2h8a1 1 0 0 1 0 2zm-4-20a7 7 0 0 1 3.5 13.056 1 1 0 0 0 -.5.865v2.079h-2v-3.586l3.211-3.206a3.12 3.12 0 0 0 0-4.415 3.2 3.2 0 0 0 -4.207-.19 3.2 3.2 0 0 0 -4.207.19 3.125 3.125 0 0 0 0 4.414l.5.5 1.414-1.414-.5-.5a1.124 1.124 0 0 1 0-1.585 1.148 1.148 0 0 1 1.586 0l.5.5a1 1 0 0 0 1.414 0l.5-.5a1.147 1.147 0 0 1 1.586 0 1.119 1.119 0 0 1 0 1.585l-3.5 3.5a1 1 0 0 0 -.293.707v4h-2v-2.079a1 1 0 0 0 -.5-.865 7 7 0 0 1 3.496-13.056z"/></svg>