<?xml version="1.0" encoding="iso-8859-1"?>
<!-- Generator: Adobe Illustrator 19.0.0, SVG Export Plug-In . SVG Version: 6.00 Build 0)  -->
<svg version="1.1" id="Capa_1" xmlns="http://www.w3.org/2000/svg" xmlns:xlink="http://www.w3.org/1999/xlink" x="0px" y="0px"
	 viewBox="0 0 512.004 512.004" style="enable-background:new 0 0 512.004 512.004;" xml:space="preserve">
<g>
	<g>
		<path d="M512,388.269V46.935c0-4.71-3.814-8.533-8.533-8.533H8.533C3.814,38.402,0,42.225,0,46.935v341.333
			c0,4.71,3.814,8.533,8.533,8.533h303.411l-20.796,38.622c-1.562,2.901-1.306,6.443,0.64,9.097
			c1.954,2.662,5.265,3.942,8.499,3.328l38.161-7.398l21.581,29.645c1.63,2.227,4.207,3.507,6.904,3.507
			c0.495,0,0.99-0.043,1.493-0.128c3.208-0.572,5.82-2.927,6.716-6.059l20.173-70.613h11.503l20.173,70.613
			c0.896,3.14,3.507,5.487,6.716,6.059c0.503,0.085,0.998,0.128,1.493,0.128c2.697,0,5.274-1.28,6.903-3.516l21.581-29.645
			l38.161,7.398c3.243,0.623,6.554-0.666,8.499-3.328c1.954-2.654,2.202-6.195,0.64-9.096l-20.796-38.613h13.278
			C508.186,396.802,512,392.979,512,388.269z M363.537,445.903l-14.473-19.891c-1.954-2.68-5.282-3.977-8.525-3.362l-25.813,5.009
			l42.462-78.857c8.96,6.263,19.302,10.633,30.481,12.612L363.537,445.903z M339.516,345.602L84.54,345.5
			c-1.596-8.354-5.538-15.923-11.503-21.854c-5.931-5.905-13.491-9.813-21.837-11.392l0.128-189.295
			c17.22-3.226,30.131-16.137,33.357-33.348l342.861,0.341c3.422,16.776,16.41,29.662,33.254,32.956v114.799
			c-14.089-17.442-35.618-28.638-59.733-28.638c-42.351,0-76.8,34.458-76.8,76.8c0,19.721,7.535,37.675,19.797,51.285
			L339.516,345.602z M400.188,379.735l0.879-3.063l0.87,3.063H400.188z M405.367,345.448c-2.116,0.154-4.258,0.111-6.383,0.043
			c-31.966-1.101-57.651-27.383-57.651-59.622c0-32.939,26.803-59.733,59.733-59.733c32.93,0,59.733,26.795,59.733,59.733
			C460.8,317.075,436.446,343.247,405.367,345.448z M461.602,422.658c-3.251-0.623-6.579,0.674-8.525,3.362l-14.473,19.891
			l-24.124-84.429c11.196-1.98,21.504-6.443,30.456-12.715l42.487,78.908L461.602,422.658z M494.933,379.735h-13.935l-22.929-42.59
			c12.297-13.67,19.797-31.684,19.797-51.277c0-2.304-0.145-4.565-0.35-6.818c0.128-0.572,0.35-1.109,0.35-1.715V115.961
			c0.026-0.247,0.034-0.503,0.034-0.759c0-4.71-3.814-8.533-8.533-8.533c-14.37,0-25.626-11.221-25.651-25.557
			c0-0.154,0-0.299-0.009-0.444c-0.222-4.634-4.011-8.533-8.721-8.132c-0.776,0.017-1.527,0.137-2.236,0.35l-355.942-0.35H76.8
			c-4.71,0-8.533,3.814-8.533,8.533c0,0.452,0.034,0.905,0.102,1.34c-0.631,14.131-11.187,24.26-25.566,24.26
			c-4.71,0-8.533,3.814-8.533,8.533l-0.136,204.783c0,2.261,0.896,4.437,2.5,6.042c1.596,1.596,3.763,2.492,6.033,2.492
			c14.831,0,25.6,10.709,25.6,25.515c0,4.71,3.814,8.533,8.533,8.533l253.525,0.102l-9.19,17.067H17.067V55.469h477.867V379.735z"/>
	</g>
</g>
<g>
	<g>
		<path d="M401.067,243.202c-23.526,0-42.667,19.14-42.667,42.667c0,23.526,19.14,42.667,42.667,42.667
			c23.526,0,42.667-19.14,42.667-42.667C443.733,262.342,424.593,243.202,401.067,243.202z M401.067,311.469
			c-14.114,0-25.6-11.486-25.6-25.6c0-14.114,11.486-25.6,25.6-25.6c14.114,0,25.6,11.486,25.6,25.6
			C426.667,299.983,415.181,311.469,401.067,311.469z"/>
	</g>
</g>
<g>
	<g>
		<path d="M401.067,123.735H110.933c-4.719,0-8.533,3.823-8.533,8.533s3.814,8.533,8.533,8.533h290.133
			c4.719,0,8.533-3.823,8.533-8.533S405.786,123.735,401.067,123.735z"/>
	</g>
</g>
<g>
	<g>
		<path d="M401.067,174.935H110.933c-4.719,0-8.533,3.823-8.533,8.533s3.814,8.533,8.533,8.533h290.133
			c4.719,0,8.533-3.823,8.533-8.533S405.786,174.935,401.067,174.935z"/>
	</g>
</g>
<g>
	<g>
		<path d="M256,226.135H110.933c-4.719,0-8.533,3.823-8.533,8.533s3.814,8.533,8.533,8.533H256c4.719,0,8.533-3.823,8.533-8.533
			S260.719,226.135,256,226.135z"/>
	</g>
</g>
<g>
	<g>
		<path d="M256,277.335H110.933c-4.719,0-8.533,3.823-8.533,8.533c0,4.71,3.814,8.533,8.533,8.533H256
			c4.719,0,8.533-3.823,8.533-8.533C264.533,281.158,260.719,277.335,256,277.335z"/>
	</g>
</g>
<g>
</g>
<g>
</g>
<g>
</g>
<g>
</g>
<g>
</g>
<g>
</g>
<g>
</g>
<g>
</g>
<g>
</g>
<g>
</g>
<g>
</g>
<g>
</g>
<g>
</g>
<g>
</g>
<g>
</g>
</svg>
