<svg xmlns="http://www.w3.org/2000/svg" viewBox="0 0 512.004 512.004"><path d="M512 388.269V46.935a8.53 8.53 0 00-8.533-8.533H8.533A8.53 8.53 0 000 46.935v341.333a8.53 8.53 0 008.533 8.533h303.411l-20.796 38.622a8.542 8.542 0 00.64 9.097 8.555 8.555 0 008.499 3.328l38.161-7.398 21.581 29.645a8.56 8.56 0 008.397 3.379 8.553 8.553 0 006.716-6.059l20.173-70.613h11.503l20.173 70.613a8.539 8.539 0 006.716 6.059c.503.085.998.128 1.493.128a8.54 8.54 0 006.903-3.516l21.581-29.645 38.161 7.398a8.524 8.524 0 008.499-3.328 8.524 8.524 0 00.64-9.096l-20.796-38.613h13.278a8.53 8.53 0 008.534-8.533zm-148.463 57.634l-14.473-19.891a8.575 8.575 0 00-8.525-3.362l-25.813 5.009 42.462-78.857a76.352 76.352 0 0030.481 12.612l-24.132 84.489zm-24.021-100.301L84.54 345.5c-1.596-8.354-5.538-15.923-11.503-21.854-5.931-5.905-13.491-9.813-21.837-11.392l.128-189.295c17.22-3.226 30.131-16.137 33.357-33.348l342.861.341c3.422 16.776 16.41 29.662 33.254 32.956v114.799c-14.089-17.442-35.618-28.638-59.733-28.638-42.351 0-76.8 34.458-76.8 76.8 0 19.721 7.535 37.675 19.797 51.285l-4.548 8.448zm60.672 34.133l.879-3.063.87 3.063h-1.749zm5.179-34.287c-2.116.154-4.258.111-6.383.043-31.966-1.101-57.651-27.383-57.651-59.622 0-32.939 26.803-59.733 59.733-59.733 32.93 0 59.733 26.795 59.733 59.733.001 31.206-24.353 57.378-55.432 59.579zm56.235 77.21a8.533 8.533 0 00-8.525 3.362l-14.473 19.891-24.124-84.429c11.196-1.98 21.504-6.443 30.456-12.715l42.487 78.908-25.821-5.017zm33.331-42.923h-13.935l-22.929-42.59c12.297-13.67 19.797-31.684 19.797-51.277 0-2.304-.145-4.565-.35-6.818.128-.572.35-1.109.35-1.715V115.961a8.53 8.53 0 00-8.499-9.292c-14.37 0-25.626-11.221-25.651-25.557 0-.154 0-.299-.009-.444-.222-4.634-4.011-8.533-8.721-8.132a8.407 8.407 0 00-2.236.35l-355.942-.35H76.8a8.53 8.53 0 00-8.533 8.533c0 .452.034.905.102 1.34-.631 14.131-11.187 24.26-25.566 24.26a8.53 8.53 0 00-8.533 8.533l-.136 204.783a8.523 8.523 0 008.533 8.534c14.831 0 25.6 10.709 25.6 25.515a8.53 8.53 0 008.533 8.533l253.525.102-9.19 17.067H17.067V55.469h477.867v324.266z"/><path d="M401.067 243.202c-23.526 0-42.667 19.14-42.667 42.667 0 23.526 19.14 42.667 42.667 42.667 23.526 0 42.667-19.14 42.667-42.667-.001-23.527-19.141-42.667-42.667-42.667zm0 68.267c-14.114 0-25.6-11.486-25.6-25.6s11.486-25.6 25.6-25.6 25.6 11.486 25.6 25.6-11.486 25.6-25.6 25.6zM401.067 123.735H110.933c-4.719 0-8.533 3.823-8.533 8.533s3.814 8.533 8.533 8.533h290.133c4.719 0 8.533-3.823 8.533-8.533s-3.813-8.533-8.532-8.533zM401.067 174.935H110.933c-4.719 0-8.533 3.823-8.533 8.533s3.814 8.533 8.533 8.533h290.133c4.719 0 8.533-3.823 8.533-8.533s-3.813-8.533-8.532-8.533zM256 226.135H110.933c-4.719 0-8.533 3.823-8.533 8.533s3.814 8.533 8.533 8.533H256c4.719 0 8.533-3.823 8.533-8.533s-3.814-8.533-8.533-8.533zM256 277.335H110.933a8.53 8.53 0 00-8.533 8.533 8.53 8.53 0 008.533 8.533H256a8.53 8.53 0 008.533-8.533 8.53 8.53 0 00-8.533-8.533z"/></svg>