<svg xmlns="http://www.w3.org/2000/svg" viewBox="0 0 312.052 312.052"><path d="M43.579 111.34c0 30.351 24.694 55.045 55.045 55.045 30.354 0 55.047-24.694 55.047-55.045 0-30.352-24.694-55.045-55.047-55.045-30.351-.001-55.045 24.693-55.045 55.045zm55.046 39.445c-21.749 0-39.446-17.694-39.446-39.445 0-7.478 2.133-14.452 5.756-20.416 8.856 9 21.061 12.575 33.367 15.19 15.465 3.286 31.958 4.918 35.335 23.133.01.048.025.084.036.129-6.564 12.695-19.797 21.409-35.048 21.409zm38.838-46.139c-16.521-13.57-45.737-8.719-61.941-25.214 6.5-4.72 14.472-7.539 23.103-7.539 19.468.001 35.644 14.186 38.838 32.753zM216.972 22.765c-17.672 0-32.053 14.378-32.053 32.047v3.364l-25.834 36.846 25.834-2.988v47.956c0 17.672 14.381 32.047 32.053 32.047h63.038c17.666 0 32.042-14.375 32.042-32.047V54.807c0-17.669-14.376-32.047-32.042-32.047h-63.038v.005zm79.48 32.042v85.178c0 9.069-7.384 16.448-16.453 16.448h-63.027c-9.069 0-16.453-7.378-16.453-16.448V74.52l-8.713 1.008 8.713-12.434v-8.287c0-9.069 7.384-16.448 16.453-16.448h63.038c9.058.005 16.442 7.383 16.442 16.448zM7.8 289.292H296.279c4.316 0 7.8-3.488 7.8-7.8 0-4.306-3.483-7.8-7.8-7.8h-110.07c1.687-3.275 2.641-6.896 2.641-10.704l-9.698-66.328c-.392-14.219-13.822-25.68-30.28-25.68H114.11l-14.876 15.355-.203-.573-.437 1.238-.14.143-16.671-16.163H48.38c-16.458 0-29.894 11.461-30.28 25.68l-9.621 65.19-.081 1.138c0 3.818.959 7.429 2.646 10.704H7.8a7.798 7.798 0 00-7.8 7.8c0 4.312 3.494 7.8 7.8 7.8zm95.755-44.138L99.03 248.1l-4.524-2.945 4.524-12.745 4.525 12.744zm-79.541 18.301l9.592-65.028.083-1.138c0-5.804 6.724-10.709 14.691-10.709h27.081l17.318 16.798L75.7 251.517l23.331 15.209 23.333-15.209-17.306-48.764 15.655-16.168h28.152c7.962 0 14.691 4.905 14.691 10.704l9.684 66.177c-.355 5.596-6.937 10.237-14.675 10.237H38.682c-7.742-.011-14.315-4.646-14.668-10.248z"/><path d="M227.737 78.792h-3.296c-.574 0-1.041.47-1.041 1.041v7.79a1.04 1.04 0 01-1.036 1.038h-7.982a1.046 1.046 0 01-1.046-1.038v-7.79c0-.571-.468-1.041-1.036-1.041h-3.301c-.568 0-1.035.47-1.035 1.041v23.811c0 .571.467 1.039 1.035 1.039h3.301c.568 0 1.036-.468 1.036-1.039v-9.476c0-.571.472-1.039 1.046-1.039h7.982a1.04 1.04 0 011.036 1.039v9.476c0 .571.467 1.039 1.041 1.039h3.296c.573 0 1.041-.468 1.041-1.039V79.833c0-.571-.467-1.041-1.041-1.041zM249.354 88.755c-.868-1.288-1.97-2.234-3.306-2.833-1.34-.597-2.833-.899-4.504-.899-2.809 0-5.083.883-6.84 2.659-1.762 1.767-2.641 4.309-2.641 7.627 0 3.047.721 5.365 2.168 6.952.387.426 1.112 1.008 1.6 1.325 1.747 1.161 3.707 1.737 5.9 1.737 3.088 0 5.484-.93 7.201-2.793.771-.825 1.315-1.643 1.614-2.447.193-.541-.223-1.008-.802-1.008h-3.037c-.568 0-1.203.337-1.482.706a3.506 3.506 0 01-.584.609c-.711.587-1.641.879-2.777.879-1.077 0-1.996-.239-2.763-.719-1.016-.625-1.646-1.627-1.889-3.011-.102-.566.354-1.028.929-1.028h11.862c.574 0 1.051-.462 1.041-1.041-.011-1.153-.062-2.075-.163-2.76-.233-1.494-.74-2.814-1.527-3.955zm-4.544 4.456h-6.541c-.574 0-.985-.467-.817-1.013.238-.779.609-1.43 1.112-1.95.711-.729 1.706-1.092 2.99-1.092 1.184 0 2.169.343 2.971 1.031.579.497.965 1.157 1.174 1.99.126.562-.321 1.034-.889 1.034zM257.646 78.792h-2.925c-.574 0-1.041.47-1.041 1.041v23.811c0 .571.467 1.039 1.041 1.039h2.925c.573 0 1.041-.468 1.041-1.039V79.833a1.043 1.043 0 00-1.041-1.041zM267.64 78.792h-2.925c-.574 0-1.041.47-1.041 1.041v23.811c0 .571.467 1.039 1.041 1.039h2.925c.574 0 1.041-.468 1.041-1.039V79.833c0-.571-.467-1.041-1.041-1.041zM272.383 95.136c0 2.808.808 5.21 2.427 7.203 1.615 1.996 4.062 2.988 7.354 2.988 3.29 0 5.743-.998 7.362-2.988 1.62-1.993 2.428-4.395 2.428-7.203 0-2.76-.808-5.151-2.428-7.175-1.614-2.024-4.062-3.037-7.353-3.037-3.296 0-5.743 1.013-7.363 3.037-1.615 2.023-2.427 4.415-2.427 7.175zm6.388-4.431c.792-1.033 1.92-1.549 3.382-1.549 1.458 0 2.585.521 3.367 1.549.787 1.036 1.173 2.514 1.173 4.431 0 1.919-.386 3.397-1.173 4.436-.787 1.041-1.909 1.562-3.367 1.562-1.462 0-2.59-.521-3.382-1.562-.792-1.038-1.188-2.521-1.188-4.436-.001-1.912.396-3.395 1.188-4.431z"/></svg>