<svg id="Capa_1" enable-background="new 0 0 511.415 511.415" height="512" viewBox="0 0 511.415 511.415" width="512" xmlns="http://www.w3.org/2000/svg"><g><path d="m492.573 464.487v-259.273c0-2.118-.896-4.138-2.466-5.56l-37.028-33.532v-50.182c0-11.363-9.245-20.608-20.609-20.608h-6.822c-.006 0-.013 0-.019 0h-50.723l-58.086-52.602c-3.07-2.779-7.813-2.545-10.593.525-2.781 3.07-2.545 7.813.525 10.594l45.808 41.482h-28.976c-.006 0-.013 0-.019 0h-51.014c-.006 0-.013 0-.019 0h-51.014c-.006 0-.013 0-.019 0h-51.014c-.006 0-.013 0-.019 0h-11.055l83.342-75.144c7.662-6.908 19.208-6.896 26.856.029l13.419 12.151c3.07 2.78 7.813 2.545 10.594-.525 2.78-3.07 2.545-7.813-.525-10.594l-13.417-12.149c-13.376-12.112-33.568-12.134-46.97-.051l-95.699 86.284h-17.558c-.006 0-.013 0-.019 0h-40.49c-11.364 0-20.609 9.245-20.609 20.608v50.328l-37.015 33.376c-1.577 1.423-2.478 3.446-2.478 5.57v259.261.022 18.519c0 15.659 12.74 28.399 28.399 28.399h416.933c15.659 0 28.399-12.74 28.399-28.399v-18.494c0-.012 0-.023 0-.035zm-458.731-245.643 75.708 47.965c1.246.788 2.634 1.165 4.007 1.165 2.484 0 4.915-1.233 6.343-3.487 2.217-3.499 1.177-8.133-2.321-10.35l-44.242-28.03v-67.14h14.103c.005 0 .009.001.014.001s.011-.001.016-.001h51.003c.005 0 .009.001.014.001s.011-.001.016-.001h51.002c.005 0 .009.001.014.001s.011-.001.016-.001h51.003c.005 0 .009.001.014.001s.011-.001.016-.001h51.002c.005 0 .009.001.014.001s.011-.001.016-.001h51.003c.005 0 .009.001.014.001s.011-.001.016-.001h51.002c.005 0 .009.001.014.001s.011-.001.016-.001h44.416v67.26l-97.156 61.823c-2.672-14.168-8.773-27.413-17.993-38.826-2.603-3.223-7.325-3.723-10.547-1.121-3.222 2.604-3.724 7.325-1.121 10.547 8.941 11.067 14.35 24.206 15.802 38.219l-32.362 20.593-4.786-14.282c-.002-.006-.004-.011-.006-.017l-11.74-35.036c-3.112-9.29-11.787-15.532-21.584-15.532s-18.472 6.242-21.584 15.532l-11.733 35.017c-.005.015-.01.029-.015.044l-4.948 14.768-36.282-22.987c4.711-35.946 35.689-63.504 72.399-63.504 11.992 0 23.89 2.977 34.409 8.607 3.652 1.956 8.197.579 10.152-3.072 1.955-3.652.579-8.197-3.073-10.152-12.689-6.792-27.035-10.383-41.488-10.383-41.924 0-77.65 29.822-86.121 69.81l-23.583-14.941c-3.5-2.215-8.133-1.177-10.35 2.322s-1.177 8.132 2.321 10.35l33.353 21.131c.012.008.024.015.036.022l43.698 27.685-179.937 117.861zm122.784-108.512-22.172 33.636h-33.067l22.172-33.636zm51.032 0-22.172 33.636h-33.067l22.172-33.636zm51.032 0-22.172 33.636h-33.067l22.172-33.636zm51.033 0-22.172 33.636h-33.067l22.172-33.636zm51.032 0-22.172 33.636h-33.067l22.172-33.636zm51.033 0-22.172 33.636h-33.067l22.172-33.636zm-139.458 187.574h-31.485l8.381-25.013c1.062-3.169 4.02-5.298 7.361-5.298s6.299 2.129 7.361 5.298zm-40.974 28.318 4.462-13.318h41.537l4.307 12.854-18.681 11.887c-4.12 2.622-9.449 2.629-13.575.013zm246.217-107.348v231.791l-179.043-117.861zm-4.828-14.708-19.666 12.514v-30.323zm-34.666-88.228v28.027h-30.498l22.172-33.636h2.717c3.093.001 5.609 2.517 5.609 5.609zm-359.134-5.608h26.648l-22.172 33.636h-10.085v-28.028c0-3.092 2.516-5.608 5.609-5.608zm-20.609 106.272-19.632-12.438 19.632-17.701zm405.838 279.811h-416.933c-7.388 0-13.399-6.011-13.399-13.399v-14.379l193.852-126.975 13.684 8.669c4.499 2.852 9.651 4.275 14.805 4.275 5.171 0 10.343-1.435 14.852-4.305l13.623-8.668 192.915 126.992v14.391c0 7.388-6.011 13.399-13.399 13.399z"/></g></svg>