<svg height="512" viewBox="0 0 511.415 511.415" width="512" xmlns="http://www.w3.org/2000/svg"><path d="M492.573 464.487V205.214a7.503 7.503 0 00-2.466-5.56l-37.028-33.532V115.94c0-11.363-9.245-20.608-20.609-20.608h-57.564L316.82 42.73a7.5 7.5 0 00-10.068 11.119l45.808 41.482H159.411l83.342-75.144a19.974 19.974 0 0126.856.029l13.419 12.151a7.501 7.501 0 0010.069-11.119L279.68 9.099a34.931 34.931 0 00-46.97-.051l-95.699 86.284H78.944c-11.364 0-20.609 9.245-20.609 20.608v50.328L21.32 199.644a7.502 7.502 0 00-2.478 5.57v277.802c0 15.659 12.74 28.399 28.399 28.399h416.933c15.659 0 28.399-12.74 28.399-28.399v-18.494-.035zM33.842 218.844l75.708 47.965a7.495 7.495 0 0010.35-2.322 7.501 7.501 0 00-2.321-10.35l-44.242-28.03v-67.14H87.44l.014.001.016-.001h51.003l.014.001.016-.001h51.002l.014.001.016-.001h51.003l.014.001.016-.001h51.002l.014.001.016-.001h51.003l.014.001.016-.001h51.002l.014.001.016-.001h44.416v67.26l-97.156 61.823c-2.672-14.168-8.773-27.413-17.993-38.826a7.5 7.5 0 10-11.668 9.426c8.941 11.067 14.35 24.206 15.802 38.219l-32.362 20.593-4.786-14.282-.006-.017-11.74-35.036c-3.112-9.29-11.787-15.532-21.584-15.532s-18.472 6.242-21.584 15.532l-11.733 35.017-.015.044-4.948 14.768-36.282-22.987c4.711-35.946 35.689-63.504 72.399-63.504 11.992 0 23.89 2.977 34.409 8.607a7.5 7.5 0 107.079-13.224c-12.689-6.792-27.035-10.383-41.488-10.383-41.924 0-77.65 29.822-86.121 69.81l-23.583-14.941a7.502 7.502 0 00-8.029 12.672l33.353 21.131.036.022 43.698 27.685L33.842 450.705zm122.784-108.512l-22.172 33.636h-33.067l22.172-33.636zm51.032 0l-22.172 33.636h-33.067l22.172-33.636zm51.032 0l-22.172 33.636h-33.067l22.172-33.636zm51.033 0l-22.172 33.636h-33.067l22.172-33.636zm51.032 0l-22.172 33.636h-33.067l22.172-33.636zm51.033 0l-22.172 33.636h-33.067l22.172-33.636zM272.33 297.906h-31.485l8.381-25.013c1.062-3.169 4.02-5.298 7.361-5.298s6.299 2.129 7.361 5.298zm-40.974 28.318l4.462-13.318h41.537l4.307 12.854-18.681 11.887a12.71 12.71 0 01-13.575.013zm246.217-107.348v231.791L298.53 332.806zm-4.828-14.708l-19.666 12.514v-30.323zm-34.666-88.228v28.027h-30.498l22.172-33.636h2.717a5.616 5.616 0 015.609 5.609zm-359.134-5.608h26.648l-22.172 33.636H73.336V115.94a5.615 5.615 0 015.609-5.608zM58.336 216.604l-19.632-12.438 19.632-17.701zm405.838 279.811H47.241c-7.388 0-13.399-6.011-13.399-13.399v-14.379l193.852-126.975 13.684 8.669a27.638 27.638 0 0014.805 4.275 27.653 27.653 0 0014.852-4.305l13.623-8.668 192.915 126.992v14.391c0 7.388-6.011 13.399-13.399 13.399z"/></svg>