<svg id="Capa_1" enable-background="new 0 0 512 512" height="512" viewBox="0 0 512 512" width="512" xmlns="http://www.w3.org/2000/svg"><g><path d="m157.042 95.607h232.107c4.143 0 7.5-3.357 7.5-7.5s-3.357-7.5-7.5-7.5h-232.107c-4.143 0-7.5 3.357-7.5 7.5s3.357 7.5 7.5 7.5z"/><path d="m60.667 83.389c-2.606-3.222-7.33-3.72-10.548-1.112-3.22 2.605-3.718 7.328-1.112 10.548l15.074 18.627c1.424 1.76 3.566 2.782 5.83 2.782s4.406-1.022 5.83-2.782l30.737-37.983c2.605-3.22 2.107-7.942-1.112-10.548-3.221-2.607-7.942-2.108-10.548 1.112l-24.907 30.778z"/><path d="m105.366 140.713c-3.221-2.606-7.942-2.108-10.548 1.112l-24.907 30.778-9.244-11.423c-2.605-3.22-7.328-3.721-10.548-1.112-3.22 2.605-3.718 7.328-1.112 10.548l15.074 18.628c1.424 1.76 3.566 2.782 5.83 2.782s4.406-1.022 5.83-2.782l30.737-37.983c2.606-3.219 2.108-7.942-1.112-10.548z"/><path d="m105.366 218.505c-3.221-2.607-7.942-2.108-10.548 1.112l-24.907 30.778-9.244-11.423c-2.605-3.22-7.328-3.72-10.548-1.112-3.22 2.605-3.718 7.328-1.112 10.548l15.074 18.628c1.424 1.76 3.566 2.782 5.83 2.782s4.406-1.022 5.83-2.782l30.737-37.983c2.606-3.22 2.108-7.942-1.112-10.548z"/><path d="m443.985 154.192v-113.205c0-17.261-14.042-31.303-31.303-31.303h-304.953c-4.143 0-7.5 3.357-7.5 7.5s3.357 7.5 7.5 7.5h304.953c8.989 0 16.303 7.313 16.303 16.303v108.744c-7.852-1.707-15.96-2.53-24.209-2.408-16.36.228-31.847 4.191-45.636 11.076h-202.098c-4.143 0-7.5 3.357-7.5 7.5s3.357 7.5 7.5 7.5h179.726c-18.171 15.866-30.88 37.852-34.865 62.792h-144.861c-4.143 0-7.5 3.357-7.5 7.5s3.357 7.5 7.5 7.5h143.565c-.336 19.959 4.868 38.912 14.366 55.194h-283.67c-8.989 0-16.303-7.313-16.303-16.303v-249.095c0-8.989 7.313-16.303 16.303-16.303h46.44c4.143 0 7.5-3.357 7.5-7.5s-3.357-7.5-7.5-7.5h-46.44c-17.261 0-31.303 14.042-31.303 31.303v249.096c0 17.261 14.042 31.303 31.303 31.303h294.273c14.327 16.938 34.012 29.416 56.989 34.679v9.33h-5.753c-4.143 0-7.5 3.357-7.5 7.5v50.968c0 4.143 3.357 7.5 7.5 7.5s7.5-3.357 7.5-7.5v-17.984h43.943v59.467c0 12.115-9.856 21.972-21.972 21.972s-21.972-9.856-21.972-21.972v-11.495c0-4.143-3.357-7.5-7.5-7.5s-7.5 3.357-7.5 7.5v11.495c0 20.387 16.585 36.972 36.972 36.972s36.972-16.585 36.972-36.972v-92.45c0-4.143-3.357-7.5-7.5-7.5h-5.753v-9.33c47.554-10.914 81.998-53.447 81.998-103.037 0-45.698-28.848-83.904-68.015-98.837zm-59.673 236.685v-10.483h43.943v10.483zm41.521-49.251c-6.275 1.38-10.831 7.078-10.831 13.551v10.217h-17.438v-10.277c0-6.535-4.489-12.09-10.919-13.51-42.894-9.462-72.966-48.353-70.986-92.744 2.149-48.133 41.681-85.876 89.326-86.542 50.763-.67 92.015 40.122 92.015 90.708 0 43.171-30.316 79.627-71.167 88.597z"/><path d="m471.072 260.724c-4.021-.953-8.071 1.539-9.026 5.569-6.146 25.94-29.076 44.058-55.763 44.058-31.607 0-57.322-25.715-57.322-57.322 0-31.608 25.715-57.323 57.322-57.323 26.687 0 49.617 18.117 55.763 44.058.954 4.03 4.987 6.525 9.026 5.569 4.031-.955 6.524-4.996 5.569-9.026-7.755-32.737-36.688-55.601-70.358-55.601-39.879 0-72.322 32.444-72.322 72.323s32.443 72.322 72.322 72.322c33.671 0 62.604-22.863 70.358-55.601.956-4.03-1.537-8.071-5.569-9.026z"/></g></svg>