<svg xmlns="http://www.w3.org/2000/svg" viewBox="0 0 512 512"><path d="M157.042 95.607h232.107c4.143 0 7.5-3.357 7.5-7.5s-3.357-7.5-7.5-7.5H157.042c-4.143 0-7.5 3.357-7.5 7.5s3.357 7.5 7.5 7.5zM60.667 83.389a7.496 7.496 0 00-10.548-1.112 7.5 7.5 0 00-1.112 10.548l15.074 18.627a7.498 7.498 0 0011.66 0l30.737-37.983a7.501 7.501 0 00-1.112-10.548 7.498 7.498 0 00-10.548 1.112L69.911 94.811zm44.699 57.324a7.5 7.5 0 00-10.548 1.112l-24.907 30.778-9.244-11.423a7.497 7.497 0 00-10.548-1.112 7.5 7.5 0 00-1.112 10.548l15.074 18.628a7.498 7.498 0 0011.66 0l30.737-37.983a7.5 7.5 0 00-1.112-10.548zm0 77.792a7.498 7.498 0 00-10.548 1.112l-24.907 30.778-9.244-11.423a7.498 7.498 0 00-10.548-1.112 7.5 7.5 0 00-1.112 10.548l15.074 18.628a7.498 7.498 0 0011.66 0l30.737-37.983a7.5 7.5 0 00-1.112-10.548z"/><path d="M443.985 154.192V40.987c0-17.261-14.042-31.303-31.303-31.303H107.729c-4.143 0-7.5 3.357-7.5 7.5s3.357 7.5 7.5 7.5h304.953c8.989 0 16.303 7.313 16.303 16.303v108.744a106.454 106.454 0 00-24.209-2.408c-16.36.228-31.847 4.191-45.636 11.076H157.042c-4.143 0-7.5 3.357-7.5 7.5s3.357 7.5 7.5 7.5h179.726c-18.171 15.866-30.88 37.852-34.865 62.792H157.042c-4.143 0-7.5 3.357-7.5 7.5s3.357 7.5 7.5 7.5h143.565c-.336 19.959 4.868 38.912 14.366 55.194H31.303c-8.989 0-16.303-7.313-16.303-16.303V40.987c0-8.989 7.313-16.303 16.303-16.303h46.44c4.143 0 7.5-3.357 7.5-7.5s-3.357-7.5-7.5-7.5h-46.44C14.042 9.684 0 23.726 0 40.987v249.096c0 17.261 14.042 31.303 31.303 31.303h294.273c14.327 16.938 34.012 29.416 56.989 34.679v9.33h-5.753a7.499 7.499 0 00-7.5 7.5v50.968c0 4.143 3.357 7.5 7.5 7.5s7.5-3.357 7.5-7.5v-17.984h43.943v59.467c0 12.115-9.856 21.972-21.972 21.972s-21.972-9.856-21.972-21.972v-11.495c0-4.143-3.357-7.5-7.5-7.5s-7.5 3.357-7.5 7.5v11.495c0 20.387 16.585 36.972 36.972 36.972s36.972-16.585 36.972-36.972v-92.45c0-4.143-3.357-7.5-7.5-7.5h-5.753v-9.33C477.556 345.152 512 302.619 512 253.029c0-45.698-28.848-83.904-68.015-98.837zm-59.673 236.685v-10.483h43.943v10.483zm41.521-49.251c-6.275 1.38-10.831 7.078-10.831 13.551v10.217h-17.438v-10.277c0-6.535-4.489-12.09-10.919-13.51-42.894-9.462-72.966-48.353-70.986-92.744 2.149-48.133 41.681-85.876 89.326-86.542 50.763-.67 92.015 40.122 92.015 90.708 0 43.171-30.316 79.627-71.167 88.597z"/><path d="M471.072 260.724a7.506 7.506 0 00-9.026 5.569c-6.146 25.94-29.076 44.058-55.763 44.058-31.607 0-57.322-25.715-57.322-57.322 0-31.608 25.715-57.323 57.322-57.323 26.687 0 49.617 18.117 55.763 44.058a7.494 7.494 0 009.026 5.569 7.499 7.499 0 005.569-9.026c-7.755-32.737-36.688-55.601-70.358-55.601-39.879 0-72.322 32.444-72.322 72.323s32.443 72.322 72.322 72.322c33.671 0 62.604-22.863 70.358-55.601a7.497 7.497 0 00-5.569-9.026z"/></svg>