<svg xmlns="http://www.w3.org/2000/svg" viewBox="0 0 64 64"><g data-name="For rent"><path d="M62 55h-1a1 1 0 000 2h1a1 1 0 000-2zm-4 0h-6V27h3a1 1 0 001-1V11a1 1 0 00-1-1H9a1 1 0 00-1 1v15a1 1 0 001 1h35v28h-5V39a1 1 0 00-.476-.852l-13-8a1 1 0 00-1.048 0l-13 8A1 1 0 0011 39v16H2a1 1 0 000 2h56a1 1 0 000-2zM10 12h44v13H10zm12 33h-6v-1h6zm-6 10v-8h6v8zm8 0V43a1 1 0 00-1-1h-8a1 1 0 00-1 1v12h-1V39.559l12-7.385 12 7.385V55zm22 0V27h4v28z"/><path d="M15 16a1 1 0 000-2h-2a1 1 0 00-1 1v7a1 1 0 002 0v-3h1a1 1 0 000-2h-1v-1zm25 0a1 1 0 000-2h-2a1 1 0 00-1 1v7a1 1 0 001 1h2a1 1 0 000-2h-1v-2h1a1 1 0 000-2h-1v-1zm-13-2h-3a1 1 0 00-1 1v7a1 1 0 002 0v-1.764l1.105 2.211a1 1 0 101.79-.894L26.618 19H27a1 1 0 001-1v-3a1 1 0 00-1-1zm-1 3h-1v-1h1zm9-3h-3a1 1 0 00-1 1v7a1 1 0 002 0v-1.764l1.1 2.211a1 1 0 101.79-.894L34.618 19H35a1 1 0 001-1v-3a1 1 0 00-1-1zm-1 3h-1v-1h1zm1 25h-8a1 1 0 00-1 1v8a1 1 0 001 1h8a1 1 0 001-1v-8a1 1 0 00-1-1zm-7 2h6v1h-6zm0 6v-3h2v3zm6 0h-2v-3h2zM21 14h-3a1 1 0 00-1 1v7a1 1 0 001 1h3a1 1 0 001-1v-7a1 1 0 00-1-1zm-1 7h-1v-5h1zm26 2a.988.988 0 00.2-.021A1 1 0 0047 22v-7a1 1 0 00-2 0v2.128l-1.081-2.522A1 1 0 0042 15v7a1 1 0 002 0v-2.128l1.081 2.522A1 1 0 0046 23z"/><path d="M48 16h1v6a1 1 0 002 0v-6h1a1 1 0 000-2h-4a1 1 0 000 2z"/></g></svg>