<svg xmlns="http://www.w3.org/2000/svg" viewBox="0 0 511.981 511.981"><path d="M83.663 340.156c-3.769 4.037-3.552 10.364.484 14.134a9.966 9.966 0 006.823 2.691 9.972 9.972 0 007.311-3.175l.654-.7c35.554 32.214 81.112 50.719 129.291 52.322 2.285.076 4.559.114 6.836.114 48.563-.002 95.229-17.241 132.059-48.935a205.525 205.525 0 005.063-4.522 204.376 204.376 0 006.208-5.934 204.717 204.717 0 0022.093-26.157 202.11 202.11 0 0016.574-27.814c13.104-26.675 20.262-56.563 20.697-86.433.435-29.819-5.823-59.865-18.098-86.89-8.711-19.179-20.292-36.752-34.482-52.365l1.703-1.824c3.769-4.037 3.552-10.364-.484-14.134-4.036-3.77-10.364-3.553-14.134.484L371 52.368c-21.738-19.649-47.622-34.504-75.451-43.182-30.041-9.368-62.372-11.624-93.496-6.525C160.01 9.55 121.819 29.159 91.61 59.367a204.847 204.847 0 00-21.62 25.496l-.002.002a202.572 202.572 0 00-13.535 21.678l-.003.006c-15.912 29.504-24.29 62.898-24.23 96.572.091 50.713 18.679 98.574 52.55 135.85l-1.107 1.185zm301.936-41.872c-5.388-3.365-1.167-.729 0 0zm3.801 2.363c-.368.057-3.919-2.438-3.284-2.041l-.14-.087-.138-.086-.04-.025c-6.872-4.292-13.648-8.682-20.307-13.296-7.037-4.875-14.17-9.684-21.685-13.8-2.93-1.604-5.933-3.105-9.037-4.343a29.775 29.775 0 0012.167-3.033c8.407-4.153 13.483-11.869 13.926-21.168.054-1.127.117-2.193.189-3.202.501-7.063 1.411-11.316 2.286-13.869 2.916 5.541 6.537 16.943 6.167 34.102-.277 12.848 3.43 22.827 11.02 29.661 3.33 2.998 7.335 5.235 11.581 6.643-.312-.105-2.068 4.445-2.705 4.544zM68.89 126.43c.713-1.5 1.254-2.656 1.236-2.664 1.887.859 3.753 1.835 5.51 2.94 13.164 8.278 15.366 12.446 20.189 21.578 2.261 4.28 5.075 9.607 9.489 16.337 3.685 5.617 4.697 11.122 3.009 16.362a19.245 19.245 0 01-1.945 4.185c-2.328 3.774-5.534 6.254-7.198 6.895-.261.1-.564.176-.898.233l-.036.007c-2.447.398-6.68-.285-10.79-.949-11.926-1.927-22.906-1.167-34.896.269a183.484 183.484 0 0116.33-65.193zm-16.451 85.357c5.334-.672 10.685-1.206 16.028-1.82 5.152-.59 10.564.283 15.798 1.129l1.375.221c6.614 1.055 13.399 1.928 19.913-.306.269-.092.539-.179.807-.282 7.364-2.832 17.077-11.43 21.001-23.615 2.498-7.756 3.602-19.856-5.323-33.463-3.896-5.939-6.357-10.599-8.529-14.709-6.084-11.52-10.349-18.554-27.226-29.167a62.372 62.372 0 00-2.812-1.654 69.242 69.242 0 00-3.599-1.877c-.034-.016-.065-.034-.098-.051.578-.927 1.165-1.85 1.759-2.767 9.316 4.383 18.835 8.782 28.762 11.618 3.568 1.019 7.771 2.174 11.526 1.406 4.387-.897 7.703-4.676 7.939-9.277.008-.164.023-.327.023-.493a9.931 9.931 0 00-2.269-6.358 10.024 10.024 0 00-7.702-3.67c-1.82 0-3.792-.764-5.495-1.292-7.115-2.206-13.989-5.296-20.747-8.397 3.844-4.689 7.856-9.254 12.183-13.454 12.053-11.695 27.664-24.153 43.219-32.529 23.833-12.833 43-17 43-17s-.44 6.309-1 9c-1.667 8-3.368 14.608-3.368 14.608-2.079 4.978.175 10.672 5.03 12.918.115.053.225.115.343.164 5.097 2.128 10.953-.277 13.082-5.373 4.445-10.642 5.89-22.604 6.952-33.996 55.536-6.675 111.569 12.536 151.24 52.208 11.093 11.092 20.62 23.405 28.458 36.762-6.61-.965-14.105-1.49-20.356-4.025-20.549-8.33-33.767-9.103-41.595-2.435-4.357 3.711-6.698 9.237-6.593 15.561.104 6.283 2.531 12.784 6.773 18.589-11.166-7.458-24.035-16.892-26.622-20.307-3.335-4.403-9.607-5.268-14.009-1.932a9.965 9.965 0 00-3.851 6.514 9.964 9.964 0 001.919 7.495c7.552 9.969 40.555 31.129 47.618 34.846 9.804 5.16 24.453 4.645 34.238-.286 6.808-3.432 8.518-8.448 8.931-11.132.847-5.508-1.674-10.554-6.746-13.5-2.427-1.41-5.173-2.224-8.081-3.086-1.03-.305-2.094-.621-3.171-.971-3.233-1.05-6.59-2.411-9.515-4.738-3.727-2.966-5.796-6.212-6.779-8.698-.447-1.13-.669-2.102-.721-2.82 2.658-.092 9.136.752 20.689 5.435 11.864 4.811 26.076 5.609 38.687 7.089 19.779 46.985 19.112 99.585-1.826 145.993-9.401-1.327-12.388-8.933-12.2-17.634.556-25.764-6.72-47.917-18.105-55.124-4.444-2.814-9.452-3.33-13.888-1.471-.296.124-.589.258-.879.404-12.585 6.292-15.019 22.628-15.741 37.777-.084 1.772-.683 2.864-2.065 3.767-2.193 1.433-5.197 1.574-6.353 1.255-3.255-2.598-10.27-14.438-9.775-24.503.67-13.624-6.179-33.086-16.013-37.759-4.649-2.209-9.866-1.484-13.615 1.889-5.848 5.264-8.723 16.831-12.929 35.268-.574 2.516-1.138 4.991-1.697 7.337a39.36 39.36 0 01-.437 1.687c-.37-.033-.744-.068-1.095-.101-3.165-.296-7.502-.701-13.136-.395-.125.007-.243.011-.355.014 8.627-3.208 12.073-14.001 15.15-23.643 1.056-3.308 2.053-6.433 3.042-8.631.187-.415.362-.837.527-1.265 2.474-6.431 2.505-14.387.049-22.07-2.776-8.688-8.292-15.436-15.135-18.515-3.229-1.453-6.145-1.813-8.745-1.515-.52.06-1.027.146-1.522.255s-.977.241-1.446.392c-4.224 1.362-7.422 4.297-9.575 6.274-2.018 1.852-4.074 3.74-6.916 5.304-2.21 1.216-4.896 2.237-8.407 2.893-2.541.476-4.321.308-5.291-.498-2.656-2.206-4.002-9.05-4.002-20.344a9.994 9.994 0 00-5.165-8.752 9.943 9.943 0 00-4.835-1.248c-5.523 0-10 4.477-10 10 0 8.572 0 26.408 11.225 35.73.248.206.507.412.778.618 4.071 3.088 10.845 6.043 20.963 4.154 13.658-2.552 20.867-9.169 25.175-13.123.287-.263.609-.558.927-.846.646.681 1.324 1.642 1.93 2.855.364.728.701 1.548.99 2.453 1.235 3.863 1.008 7.324.236 9.041-1.457 3.238-2.677 7.06-3.857 10.757-1.09 3.416-2.83 8.866-4.189 11.171-8.534 2.539-13.332 12.619-12.513 21.373.849 9.077 7.997 17.892 22.039 17.138 4.166-.225 7.371.074 10.198.338 4.608.429 9.374.875 14.049-1.981 5.402-3.3 7.42-9.105 8.797-14.887.573-2.405 1.151-4.942 1.74-7.521.727-3.184 1.64-7.187 2.613-11.089.376 2.078.57 4.213.469 6.26-.819 16.657 9.15 35.562 18.61 42.111.406.281.827.545 1.262.792l-.04.002a18.773 18.773 0 00-1.822.116c-.488.054-.971.12-1.443.213a14.948 14.948 0 00-6.23 2.801 14.143 14.143 0 00-3.235 3.465c-1.002 1.092-4.914 3.113-7.264 4.328-7.2 3.721-16.161 8.352-17.42 17.845-.504 3.8.381 7.537 2.635 11.166-12.165 1.367-16.548 1.229-18.112.91a9.935 9.935 0 00-4.79-.451 10.006 10.006 0 00-6.644 4.088 9.982 9.982 0 00-1.2 2.213c-1.982 5.155.589 10.941 5.744 12.923 5.902 2.27 13.026 1.475 19.163.996 10.091-.788 20.133-2.26 30.141-3.739a10 10 0 004.03-18.249 94.385 94.385 0 01-1.38-.922c-3.149-2.139-5.801-4.194-8.068-6.251 1.202-.721 2.646-1.492 3.904-2.149.419-.219.818-.425 1.18-.612 4.587-2.371 9.302-4.807 12.713-8.458 3.682.91 12.205 4.851 31.872 18.604 6.957 4.887 14.194 9.371 21.416 13.853a184.461 184.461 0 01-13.486 15.06 185.108 185.108 0 01-5.605 5.357 186.628 186.628 0 01-4.569 4.082c-69.634 59.921-174.311 57.956-241.877-3.311 4.926-7.958 9.942-16.79 11.365-26.186 3.939-25.999 11.508-42.54 16.874-46.907 10.142-8.255 19.611-18.159 20.009-18.576.686-.719 1.361-1.7 1.789-2.596 2.009-4.211 3.198-6.055 3.844-6.86 1.292.369 4.31 1.662 10.845 6.073 4.41 2.975 10.328 1.957 13.52-2.211.122-.16.249-.314.363-.483 3.09-4.578 1.884-10.793-2.694-13.883-10.75-7.256-19.098-11.296-27.478-9.01-7.913 2.156-12.19 9.058-15.725 16.261-2.002 2.041-6.632 6.671-11.962 11.397a159.582 159.582 0 01-5.136 4.377c-15.462 12.584-21.951 45.748-24.023 59.422-.774 5.109-3.596 10.051-6.106 14.46-27.415-31.118-43.239-70.109-45.246-111.626zM385.839 298.433l-.021-.013.021.013z"/><path d="M147.548 117.14c.41 0 .824-.025 1.241-.077 10.55-1.305 18.899-5.314 24.817-11.915 3.687-4.112 3.342-10.434-.771-14.121-.059-.053-.123-.097-.184-.149-4.114-3.519-10.304-3.134-13.938.919-2.672 2.981-6.607 4.702-12.381 5.417-5.209.645-8.976 5.188-8.755 10.343.012.269.025.538.059.81.627 5.065 4.937 8.773 9.912 8.773zM270.871 129.519c-2.766-4.689-8.787-6.317-13.542-3.618-7.566 4.295-11.315 3.453-14.241 1.904-4.881-2.584-10.933-.721-13.517 4.159a9.935 9.935 0 00-1.077 3.446c-.496 4.001 1.462 8.073 5.236 10.071 4.553 2.41 9.229 3.617 14.083 3.617 6.142 0 12.568-1.932 19.388-5.803 4.803-2.726 6.487-8.83 3.761-13.633-.028-.049-.062-.094-.091-.143zM219.229 284.193a9.955 9.955 0 006.224 2.179 9.977 9.977 0 007.444-3.341c.128-.143.263-.277.384-.429 3.441-4.32 2.729-10.612-1.591-14.052-3.936-3.135-7.853-7.229-12.523-12.413-3.693-4.098-10.004-4.431-14.108-.747l-.015.012c-4.103 3.697-4.432 10.02-.735 14.123 5.333 5.919 9.912 10.679 14.92 14.668zM236.199 51.987a151.58 151.58 0 0147.123 7.873 9.991 9.991 0 003.183.522c4.179 0 8.076-2.641 9.479-6.821 1.757-5.236-1.063-10.905-6.299-12.662a171.57 171.57 0 00-53.329-8.911h-.08c-5.486 0-9.955 4.426-9.998 9.921-.043 5.523 4.399 10.035 9.921 10.078zM314.634 74.563a151.45 151.45 0 0114.98 10.588 9.96 9.96 0 006.25 2.2 9.98 9.98 0 007.807-3.744c3.456-4.308 2.764-10.602-1.544-14.058a171.506 171.506 0 00-16.967-11.992c-4.696-2.908-10.86-1.458-13.766 3.239-2.906 4.697-1.456 10.861 3.24 13.767z"/><path d="M458.346 101.89c-2.26-5.04-8.176-7.293-13.216-5.034-5.04 2.26-7.293 8.177-5.033 13.216 37.905 84.54 19.342 185.37-46.191 250.902-87.616 87.617-230.181 87.617-317.797 0-3.905-3.905-10.237-3.905-14.143 0-3.905 3.905-3.905 10.237 0 14.143 46.221 46.221 107.675 71.676 173.041 71.676s126.82-25.455 173.041-71.676c35.771-35.772 59.281-80.927 67.985-130.584 8.508-48.535 2.392-97.86-17.687-142.643zM418.144 71.786a9.987 9.987 0 008.149 4.194 9.954 9.954 0 005.799-1.86c4.496-3.207 5.541-9.452 2.334-13.948a247.16 247.16 0 00-26.377-31.137c-3.905-3.905-10.237-3.905-14.143 0-3.905 3.905-3.905 10.237 0 14.143a227.152 227.152 0 0124.238 28.608zM294.307 491.981h-40.438v-17.104c0-5.523-4.477-10-10-10s-10 4.477-10 10v17.104H193.43c-5.523 0-10 4.477-10 10s4.477 10 10 10h100.877c5.523 0 10-4.477 10-10s-4.477-10-10-10z"/></svg>