<svg viewBox="0 0 64 64" xmlns="http://www.w3.org/2000/svg"><path d="M59 29c0-6.617-5.383-12-12-12s-12 5.383-12 12 5.383 12 12 12 12-5.383 12-12zm-22 0c0-5.514 4.486-10 10-10s10 4.486 10 10-4.486 10-10 10-10-4.486-10-10z"/><path d="M51 44.473C57.889 42.69 63 36.439 63 29c0-8.822-7.178-16-16-16V6c0-2.757-2.243-5-5-5H6C3.243 1 1 3.243 1 6v20c0 2.757 2.243 5 5 5h13.465l3.316 4.974A2.296 2.296 0 0024.697 37 2.305 2.305 0 0027 34.697V31h4.139c.821 6.541 5.6 11.853 11.861 13.473V46c0 .537.153 1.034.401 1.471A2.994 2.994 0 0042 50v8c0 2.757 2.243 5 5 5s5-2.243 5-5v-8a2.994 2.994 0 00-1.401-2.529c.248-.437.401-.934.401-1.471zM25 29v5.697c0 .269-.405.391-.555.168L20.535 29H6c-1.654 0-3-1.346-3-3V6c0-1.654 1.346-3 3-3h36c1.654 0 3 1.346 3 3v7.139a15.962 15.962 0 00-10 5.314V12c0-1.654 1.346-3 3-3s3 1.346 3 3h2c0-2.757-2.243-5-5-5s-5 2.243-5 5v8c0 .359.052.713.128 1.062A15.879 15.879 0 0031 29zm8 0c0-7.72 6.28-14 14-14s14 6.28 14 14-6.28 14-14 14-14-6.28-14-14zm14 16c.679 0 1.343-.056 2-.139V46c0 .551-.448 1-1 1h-2c-.552 0-1-.449-1-1v-1.139c.657.083 1.321.139 2 .139zm3 13c0 1.654-1.346 3-3 3s-3-1.346-3-3v-8c0-.551.448-1 1-1h4c.552 0 1 .449 1 1z"/><path d="M29 12c0-2.757-2.243-5-5-5h-5v18h5c2.757 0 5-2.243 5-5a4.997 4.997 0 00-2.003-4A4.997 4.997 0 0029 12zm-2 8c0 1.654-1.346 3-3 3h-3v-6h3c1.654 0 3 1.346 3 3zm-3-5h-3V9h3c1.654 0 3 1.346 3 3s-1.346 3-3 3zM10 7c-2.757 0-5 2.243-5 5v13h2v-6h6v6h2V12c0-2.757-2.243-5-5-5zM7 17v-5c0-1.654 1.346-3 3-3s3 1.346 3 3v5zM52.293 23.293L44 31.586l-2.293-2.293-1.414 1.414L44 34.414l9.707-9.707z"/></svg>