<svg id="Layer_5" enable-background="new 0 0 64 64" height="512" viewBox="0 0 64 64" width="512" xmlns="http://www.w3.org/2000/svg"><g><path d="m59 29c0-6.617-5.383-12-12-12s-12 5.383-12 12 5.383 12 12 12 12-5.383 12-12zm-22 0c0-5.514 4.486-10 10-10s10 4.486 10 10-4.486 10-10 10-10-4.486-10-10z"/><path d="m51 44.473c6.889-1.783 12-8.034 12-15.473 0-8.822-7.178-16-16-16v-7c0-2.757-2.243-5-5-5h-36c-2.757 0-5 2.243-5 5v20c0 2.757 2.243 5 5 5h13.465l3.316 4.974c.428.643 1.144 1.026 1.916 1.026 1.27 0 2.303-1.033 2.303-2.303v-3.697h4.139c.821 6.541 5.6 11.853 11.861 13.473v1.527c0 .537.153 1.034.401 1.471-.839.532-1.401 1.464-1.401 2.529v8c0 2.757 2.243 5 5 5s5-2.243 5-5v-8c0-1.065-.562-1.997-1.401-2.529.248-.437.401-.934.401-1.471zm-26-15.473v5.697c0 .269-.405.391-.555.168l-3.91-5.865h-14.535c-1.654 0-3-1.346-3-3v-20c0-1.654 1.346-3 3-3h36c1.654 0 3 1.346 3 3v7.139c-3.969.498-7.482 2.453-10 5.314v-6.453c0-1.654 1.346-3 3-3s3 1.346 3 3h2c0-2.757-2.243-5-5-5s-5 2.243-5 5v8c0 .359.052.713.128 1.062-1.346 2.342-2.128 5.048-2.128 7.938zm8 0c0-7.72 6.28-14 14-14s14 6.28 14 14-6.28 14-14 14-14-6.28-14-14zm14 16c.679 0 1.343-.056 2-.139v1.139c0 .551-.448 1-1 1h-2c-.552 0-1-.449-1-1v-1.139c.657.083 1.321.139 2 .139zm3 13c0 1.654-1.346 3-3 3s-3-1.346-3-3v-8c0-.551.448-1 1-1h1 2 1c.552 0 1 .449 1 1z"/><path d="m29 12c0-2.757-2.243-5-5-5h-5v18h5c2.757 0 5-2.243 5-5 0-1.634-.788-3.087-2.003-4 1.215-.913 2.003-2.366 2.003-4zm-2 8c0 1.654-1.346 3-3 3h-3v-6h3c1.654 0 3 1.346 3 3zm-3-5h-3v-6h3c1.654 0 3 1.346 3 3s-1.346 3-3 3z"/><path d="m10 7c-2.757 0-5 2.243-5 5v13h2v-6h6v6h2v-13c0-2.757-2.243-5-5-5zm-3 10v-5c0-1.654 1.346-3 3-3s3 1.346 3 3v5z"/><path d="m52.293 23.293-8.293 8.293-2.293-2.293-1.414 1.414 3.707 3.707 9.707-9.707z"/></g></svg>