<svg xmlns="http://www.w3.org/2000/svg" viewBox="0 0 64 64"><path d="M17.182 33.07h-4.51a1 1 0 00-1 1v6.763a1 1 0 001 1h4.51a1 1 0 001-1V34.07a1 1 0 00-1-1zm-1 6.763h-2.51V35.07h2.51v4.763zM28.455 33.07h-4.51a1 1 0 00-1 1v6.763a1 1 0 001 1h4.51a1 1 0 001-1V34.07a1 1 0 00-1-1zm-1 6.763h-2.51V35.07h2.51v4.763zM39.727 33.07h-4.509a1 1 0 00-1 1v6.763a1 1 0 001 1h4.509a1 1 0 001-1V34.07a1 1 0 00-1-1zm-1 6.763h-2.509V35.07h2.509v4.763zM51 33.07h-4.51a1 1 0 00-1 1v6.763a1 1 0 001 1H51a1 1 0 001-1V34.07a1 1 0 00-1-1zm-1 6.763h-2.51V35.07H50v4.763z"/><path d="M63 60.451h-5v-33a1 1 0 00-1-1h-6.761V19.46c0-.03-.015-.054-.017-.083a.953.953 0 00-.045-.22.967.967 0 00-.053-.14.992.992 0 00-.12-.179c-.032-.038-.06-.077-.096-.11-.054-.05-.117-.086-.181-.123-.044-.025-.084-.055-.132-.073-.012-.005-.02-.014-.033-.018l-17.36-5.944v-2.043c1.62.29 3.217.44 4.782.44 1.963 0 3.878-.227 5.73-.682a1 1 0 00.761-.97V2.55a1 1 0 00-1.144-.99c-3.993.583-7.678.586-10.954.005-.028-.005-.055.006-.082.003-.032-.003-.06-.018-.092-.018-.05 0-.092.02-.14.028-.061.009-.12.016-.178.036a.965.965 0 00-.223.116c-.032.022-.072.028-.102.054-.01.008-.015.022-.025.032a.985.985 0 00-.177.23c-.02.035-.05.061-.065.097a.988.988 0 00-.09.407v10.019l-17.36 5.944c-.013.004-.022.013-.034.018-.047.018-.087.048-.13.073-.065.037-.128.073-.182.122-.037.034-.064.073-.096.111a.981.981 0 00-.12.18.955.955 0 00-.054.139.948.948 0 00-.044.22c-.003.029-.017.053-.017.083v6.992H7a1 1 0 00-1 1v33H1a1 1 0 100 2h62a1 1 0 100-2zm-48.834-36h34.073v1.899H14.166V24.45zm34.073-2H14.166V20.46h34.073v1.992zM41.475 3.692v4.822c-2.938.608-6.05.603-9.272-.015V3.717c2.854.385 5.963.377 9.272-.025zm-10.272 10.65l12.027 4.117H19.174l12.029-4.118zM25 60.451v-12h6v12h-6zm8 0v-12h6v12h-6zm8 0v-13a1 1 0 00-1-1H24a1 1 0 00-1 1v13H8v-32h48v32H41z"/></svg>