<svg height="512" viewBox="0 0 64 64" width="512" xmlns="http://www.w3.org/2000/svg"><path d="M13 61a1 1 0 001 1h25a1 1 0 001-1v-4h12a1 1 0 001-1V44h6a.999.999 0 00.978-1.21L57 28.894a27.042 27.042 0 00-8.999-20.017c-5.798-5.19-13.29-7.57-21.088-6.704C14.39 3.563 4.391 13.68 3.14 26.229 2.485 32.774 4.2 39.301 7.972 44.607 11.262 49.237 13 54.906 13 61zM5.129 26.428C6.289 14.813 15.542 5.448 27.134 4.16c7.231-.8 14.165 1.402 19.533 6.207A25.039 25.039 0 0155 29c0 .07.008.14.022.21L57.762 42H52a1 1 0 00-1 1v12H35v2h3v3H14.985c-.181-6.132-2.033-11.836-5.382-16.55-3.49-4.913-5.08-10.958-4.474-17.022z"/><path d="M35.827 30.724l-.743-1.776c.16-.329.302-.671.423-1.024l1.784-.732c.333-.136.566-.442.612-.799.067-.521.097-.964.097-1.393s-.03-.872-.097-1.393a1.002 1.002 0 00-.612-.8l-1.784-.731a9.158 9.158 0 00-.422-1.024l.742-1.776a1 1 0 00-.133-.998 11.04 11.04 0 00-1.971-1.973 1 1 0 00-.998-.132l-1.777.743a9.136 9.136 0 00-1.023-.422l-.733-1.785a1 1 0 00-.798-.612 9.87 9.87 0 00-2.788 0 1 1 0 00-.798.612l-.733 1.785c-.351.12-.693.261-1.023.422l-1.777-.743a1 1 0 00-.998.132c-.737.571-1.4 1.235-1.971 1.972a1 1 0 00-.133.998l.743 1.776c-.16.33-.302.672-.423 1.025l-1.784.732a1.002 1.002 0 00-.612.799C16.03 24.128 16 24.57 16 25s.03.872.097 1.393c.046.357.279.663.612.8l1.784.731c.121.352.262.695.422 1.024l-.742 1.776a1 1 0 00.133.998 11.04 11.04 0 001.971 1.973c.285.221.667.27.998.132l1.777-.743c.33.16.672.302 1.023.422l.733 1.785a1 1 0 00.798.612c.522.066.964.097 1.394.097s.872-.03 1.394-.097a1 1 0 00.798-.612l.733-1.785c.352-.12.694-.261 1.023-.422l1.777.743c.33.138.712.089.998-.132a11.04 11.04 0 001.971-1.973 1 1 0 00.133-.998zm-1.514-4.472a.998.998 0 00-.583.653 6.986 6.986 0 01-.622 1.507c-.15.268-.169.591-.05.875l.691 1.652a9.119 9.119 0 01-.81.81l-1.652-.69a1 1 0 00-.875.05 6.97 6.97 0 01-1.507.621.997.997 0 00-.652.583l-.684 1.665c-.4.03-.738.03-1.138 0l-.684-1.665a.997.997 0 00-.652-.583 7.033 7.033 0 01-1.508-.622c-.27-.149-.59-.168-.874-.05l-1.652.691a9.185 9.185 0 01-.81-.81l.69-1.652c.119-.284.1-.606-.05-.874a6.951 6.951 0 01-.621-1.508.998.998 0 00-.582-.653l-1.666-.683a7.242 7.242 0 010-1.138l1.665-.683a.998.998 0 00.583-.653 6.986 6.986 0 01.622-1.507c.15-.268.169-.59.05-.875l-.691-1.652a9.18 9.18 0 01.81-.81l1.652.69c.284.12.604.1.874-.05.468-.26.975-.47 1.508-.621a.997.997 0 00.652-.583l.684-1.665c.4-.03.738-.03 1.138 0l.684 1.665a.997.997 0 00.652.583c.533.15 1.04.36 1.508.622.268.149.59.168.874.05l1.652-.691c.287.252.557.523.81.81l-.69 1.652c-.119.284-.1.606.05.874.261.466.47.974.621 1.508a.998.998 0 00.582.653l1.665.683a7.237 7.237 0 010 1.138z"/><path d="M27 20c-2.757 0-5 2.243-5 5s2.243 5 5 5 5-2.243 5-5-2.243-5-5-5zm0 8c-1.654 0-3-1.346-3-3s1.346-3 3-3 3 1.346 3 3-1.346 3-3 3zM35.299 36.277l1.187 1.61a16.084 16.084 0 003.058-2.953l-1.566-1.243a14.103 14.103 0 01-2.68 2.586z"/><path d="M12.751 32.283l1.78-.912a13.972 13.972 0 01-1.028-2.637A14.023 14.023 0 0113 25c0-7.72 6.28-14 14-14h7.586l-1.293 1.293 1.414 1.414 3-3a1 1 0 000-1.414l-3-3-1.414 1.414L34.586 9H27c-8.822 0-16 7.178-16 16 0 1.448.193 2.884.575 4.266.287 1.04.683 2.054 1.176 3.017zM42.425 29.266l-1.928-.532a13.916 13.916 0 01-1.46 3.421l1.716 1.025a15.875 15.875 0 001.672-3.914zM15.49 32.97l-1.645 1.14a16.076 16.076 0 002.864 3.142l1.287-1.53a14.014 14.014 0 01-2.507-2.752zM30.256 38.62l.463 1.945a15.89 15.89 0 003.97-1.53l-.962-1.754c-1.093.6-2.261 1.05-3.471 1.339zM18.429 38.512a15.927 15.927 0 003.863 1.784l.588-1.912a13.892 13.892 0 01-3.377-1.56zM28.618 40.92l-.201-1.99c-.465.046-.937.07-1.404.07-.777.037-1.557-.063-2.317-.188l-.326 1.972c.868.144 1.795.204 2.644.216.533 0 1.072-.027 1.604-.08zM23 55h2v2h-2zM27 55h2v2h-2zM31 55h2v2h-2z"/></svg>