<svg height="512" width="512" xmlns="http://www.w3.org/2000/svg"><path d="M490.5 409.999h-15.023a27.327 27.327 0 003.023-12.51l-.01-259.994c0-15.163-12.337-27.5-27.5-27.5H410.5v-9.16c0-7.223-5.876-13.1-13.1-13.1h-12.413V50.1c0-4.229-2.057-8.218-5.501-10.672a13.127 13.127 0 00-11.885-1.71l-23.624 8.169a7.5 7.5 0 004.902 14.176l21.107-7.299v180.379L263.5 269.968V89.589l55.137-19.067a7.5 7.5 0 004.637-9.539 7.497 7.497 0 00-9.539-4.637L256 76.311 144.399 37.718a13.124 13.124 0 00-11.885 1.71 13.128 13.128 0 00-5.501 10.672v37.634H114.6c-7.224 0-13.1 5.877-13.1 13.1v9.17H61c-15.164 0-27.5 12.337-27.5 27.5l.001 26.671a7.5 7.5 0 0015 0l-.001-26.67c0-6.893 5.607-12.5 12.5-12.5h40.5v15H71a7.497 7.497 0 00-7.5 7.5l.01 239.994a7.5 7.5 0 007.5 7.5l369.99-.01a7.501 7.501 0 007.5-7.5l-.01-239.994a7.5 7.5 0 00-7.5-7.5H410.5v-15h40.49c6.893 0 12.5 5.607 12.5 12.5l.01 259.994c0 6.893-5.607 12.5-12.5 12.5l-389.99.01c-6.893 0-12.5-5.607-12.5-12.5l-.007-201.23a7.5 7.5 0 00-15 0l.007 201.23c0 4.5 1.093 8.747 3.018 12.5H21.5c-11.855 0-21.5 9.645-21.5 21.5v22C0 465.355 9.645 475 21.5 475h298.181c4.143 0 7.5-3.357 7.5-7.5s-3.357-7.5-7.5-7.5H21.5a6.508 6.508 0 01-6.5-6.5v-22c0-3.584 2.916-6.5 6.5-6.5h184v5.27c0 10.328 8.403 18.731 18.731 18.731h63.539c10.328 0 18.73-8.402 18.73-18.731V425h184c3.584 0 6.5 2.916 6.5 6.5v22c0 3.584-2.916 6.5-6.5 6.5H352.425c-4.143 0-7.5 3.357-7.5 7.5s3.357 7.5 7.5 7.5H490.5c11.855 0 21.5-9.645 21.5-21.5v-22c0-11.856-9.645-21.501-21.5-21.501zM376.169 246.876a13.11 13.11 0 008.818-12.381v-131.76H395.5v170.262h-94.864zM142.013 52.764L248.5 89.589v180.379l-106.487-36.825zM116.5 102.735h10.513v131.761c0 5.58 3.544 10.556 8.82 12.382l75.531 26.12H116.5zm316.99 52.26l.01 224.994-354.991.01-.009-224.994h23v119.892c0 7.223 5.876 13.1 13.1 13.1h282.8c7.224 0 13.1-5.877 13.1-13.1V154.995zM291.5 430.269a3.735 3.735 0 01-3.73 3.731h-63.539a3.736 3.736 0 01-3.731-3.731v-5.27h71z"/><path d="M354.512 309.387H157.489c-4.142 0-7.5 3.357-7.5 7.5s3.358 7.5 7.5 7.5h197.023c4.143 0 7.5-3.357 7.5-7.5s-3.358-7.5-7.5-7.5zM285.263 341.202H157.489c-4.142 0-7.5 3.357-7.5 7.5s3.358 7.5 7.5 7.5h127.774c4.143 0 7.5-3.357 7.5-7.5s-3.358-7.5-7.5-7.5z"/></svg>