<svg height="512" width="512" xmlns="http://www.w3.org/2000/svg"><path d="M211.609 97.425c.614.599.894 1.461.75 2.306l-3.99 23.256c-1.14 6.65 1.543 13.245 7.001 17.211 5.46 3.967 12.56 4.479 18.532 1.339l20.883-10.979c.759-.4 1.668-.4 2.427 0l20.884 10.98a17.605 17.605 0 008.206 2.04c3.632 0 7.242-1.139 10.326-3.38 5.458-3.966 8.141-10.561 7-17.211l-3.989-23.256a2.61 2.61 0 01.75-2.307l16.896-16.47c4.832-4.709 6.538-11.622 4.453-18.039-2.086-6.417-7.528-11.006-14.206-11.976l-23.349-3.393a2.605 2.605 0 01-1.963-1.426l-10.44-21.158c-2.986-6.05-9.032-9.809-15.78-9.809s-12.794 3.759-15.78 9.809l-10.444 21.16a2.606 2.606 0 01-1.961 1.425l-23.35 3.393c-6.677.97-12.12 5.559-14.206 11.976-2.085 6.417-.379 13.329 4.453 18.039zm-7.093-29.877c.187-.575.71-1.571 2.104-1.774l23.351-3.393a17.586 17.586 0 0013.248-9.626l10.443-21.158c.624-1.264 1.732-1.453 2.337-1.453s1.714.189 2.337 1.453l10.442 21.157a17.595 17.595 0 0013.25 9.628l23.35 3.393c1.395.203 1.917 1.198 2.104 1.774.186.576.349 1.688-.661 2.673l-16.895 16.469a17.59 17.59 0 00-5.061 15.576l3.989 23.255c.238 1.39-.548 2.194-1.037 2.55-.491.355-1.497.854-2.745.198l-20.885-10.98a17.594 17.594 0 00-16.377 0l-20.884 10.98c-1.247.658-2.254.158-2.745-.198-.489-.356-1.276-1.16-1.037-2.549l3.989-23.256a17.594 17.594 0 00-5.06-15.576l-16.896-16.47c-1.01-.985-.847-2.098-.661-2.673zM320.942 115.424a7.494 7.494 0 003.591 9.973l17.173 8.081a7.457 7.457 0 003.186.715 7.498 7.498 0 003.197-14.279l-17.173-8.081a7.495 7.495 0 00-9.974 3.591zM339.846 95.805h17.173a7.495 7.495 0 100-14.99h-17.173a7.495 7.495 0 100 14.99zM160.322 129.888a7.495 7.495 0 009.973 3.591l17.173-8.081a7.494 7.494 0 003.59-9.973 7.492 7.492 0 00-9.973-3.59l-17.173 8.081a7.494 7.494 0 00-3.59 9.972zM154.982 95.805h17.173a7.495 7.495 0 100-14.99h-17.173a7.495 7.495 0 100 14.99zM504.505 449.532h-31.902V275.198a7.495 7.495 0 00-7.495-7.495h-39.605a7.495 7.495 0 100 14.99h32.11v166.838H333.201V282.693h57.324a7.495 7.495 0 100-14.99h-57.324V208.52a7.495 7.495 0 00-7.495-7.495H186.294a7.495 7.495 0 00-7.495 7.495v37.386a7.495 7.495 0 1014.99 0v-29.891H318.21v233.516H193.79V280.884a7.495 7.495 0 10-14.99 0v47.42h-71.705a7.495 7.495 0 100 14.99H178.8v106.237H54.387V343.295h17.729a7.495 7.495 0 100-14.99H46.892a7.495 7.495 0 00-7.495 7.495v113.732H7.495A7.495 7.495 0 000 457.027v32.326a7.495 7.495 0 007.495 7.495h497.01a7.495 7.495 0 007.495-7.495v-32.326a7.494 7.494 0 00-7.495-7.495zm-7.495 32.325H14.991v-17.335H497.01z"/></svg>