<svg xmlns="http://www.w3.org/2000/svg" viewBox="0 0 512.039 512.039" width="512" height="512"><path d="M509.067 215.358a10.01 10.01 0 00-9.044-2.732l-86.184 17.345a10.002 10.002 0 00-5.099 16.875l11.66 11.66-45.762 45.762-35.426-35.426a10.003 10.003 0 00-14.142 0l-43.47 43.471 16.306-58.59c3.964-14.243 1.108-29.163-7.835-40.936-5.478-7.21-12.71-12.526-20.886-15.572l13.035-37.236c3.597.316 7.185.477 10.732.477 28.876 0 57.03-10.178 79.277-28.657l2.383-1.979c11.729-9.745 13.733-26.68 4.565-38.552-4.649-6.021-11.367-9.797-18.917-10.631-7.553-.835-14.933 1.381-20.777 6.236l-2.707 2.249a68.858 68.858 0 01-12.965 8.501c-15.42 7.778-34.676 4.314-47.471-8.349 18.612-5.765 32.17-23.139 32.17-43.621C308.511 20.48 288.03 0 262.856 0c-25.175 0-45.655 20.48-45.655 45.654 0 10.018 3.251 19.286 8.742 26.822a52.096 52.096 0 00-26.885 15.162 9.99 9.99 0 00-1.179 1.208c-17.629 21.654-41.131 37.186-67.964 44.915-7.265 2.094-13.015 6.918-16.466 13.034l-20.496-20.496c-8.968-8.967-23.558-8.966-32.527 0l-26.823 26.824L6.78 179.946A22.845 22.845 0 00.043 196.21a22.856 22.856 0 006.736 16.264l73.905 73.905a22.851 22.851 0 0016.264 6.736c6.145 0 11.92-2.393 16.264-6.736l27.773-27.773-13.169 34.532c-1.968 5.16.62 10.939 5.78 12.907a9.983 9.983 0 003.562.659c4.028 0 7.825-2.452 9.346-6.439l32.798-86.001H252.735c8.479 0 16.282 3.872 21.411 10.623s6.767 15.307 4.493 23.474l-22.723 81.646a8.552 8.552 0 01-8.214 6.24c-3.422 0-5.532-1.874-6.485-2.991s-2.473-3.496-1.936-6.874l12.091-76.012a9.999 9.999 0 00-9.876-11.571h-23.708a10 10 0 00-8.924 5.486c-.584 1.154-58.605 115.875-78.157 154.639-1.957 3.882-6.212 6.097-10.575 5.5l-.474-.064c-2.977-.402-5.563-2.114-7.098-4.697s-1.8-5.674-.729-8.48l6.162-16.157c1.968-5.16-.62-10.938-5.78-12.907-5.159-1.968-10.938.621-12.907 5.78l-6.162 16.157c-3.259 8.546-2.449 17.957 2.222 25.821 4.671 7.863 12.548 13.077 21.604 14.303l.474.063c1.371.187 2.737.276 4.094.276 11.322 0 21.852-6.326 27.027-16.588 17.078-33.86 63.524-125.706 75.372-149.132h5.843l-10.25 64.441a28.485 28.485 0 006.476 23 28.483 28.483 0 0013.02 8.649L127.629 466.286a10.003 10.003 0 000 14.142l28.683 28.682c1.953 1.952 4.512 2.929 7.071 2.929s5.118-.977 7.071-2.929l55.141-55.141c3.905-3.905 3.905-10.237 0-14.143-3.906-3.904-10.236-3.904-14.143 0l-48.069 48.07-14.54-14.54 183.3-183.302 35.426 35.426a10.003 10.003 0 0014.142 0l59.903-59.904c3.905-3.905 3.905-10.237 0-14.143l-5.538-5.538 53.149-10.696-10.696 53.149-8.231-8.231c-3.906-3.904-10.236-3.904-14.143 0l-81.516 81.516-35.426-35.426c-3.906-3.904-10.236-3.904-14.143 0l-57.051 57.051c-3.905 3.905-3.905 10.237 0 14.143 3.906 3.904 10.236 3.904 14.143 0l49.979-49.979 35.426 35.426c3.906 3.904 10.236 3.904 14.143 0l81.516-81.516 14.354 14.354a9.999 9.999 0 0016.875-5.099l17.345-86.185a10.004 10.004 0 00-2.733-9.044zM262.856 20c14.146 0 25.654 11.509 25.654 25.654 0 14.146-11.509 25.655-25.654 25.655-14.146 0-25.655-11.509-25.655-25.655C237.201 31.509 248.71 20 262.856 20zm-98.952 177.25l-12.17-12.17a193.284 193.284 0 0017.015-6.456l-4.845 18.626zm-33.749-34.688c-1.182-4.102 1.195-8.4 5.297-9.582a155.984 155.984 0 0045.586-21.597l-5.647 21.71a172.464 172.464 0 01-35.657 14.765 8.385 8.385 0 01-.712.17c-1.845.351-3.691-.016-5.241-.9l-2.929-2.929a7.61 7.61 0 01-.697-1.637zm-55.588-22.121c.585-.585 1.354-.877 2.122-.877s1.537.292 2.121.877l36.452 36.452a27.489 27.489 0 005.978 5.978l31.476 31.476a3.002 3.002 0 010 4.242l-19.752 19.752-21.967-21.967 4.184-4.184c3.905-3.905 3.905-10.237 0-14.143l-22.51-22.51c-3.906-3.904-10.236-3.904-14.143 0l-4.184 4.184-19.529-19.529 19.752-19.751zm13.688 70.391a3.74 3.74 0 01-2.655 1.101c-.58 0-1.697-.144-2.654-1.1v-.001l-3.059-3.058a3.743 3.743 0 01-1.1-2.654 3.74 3.74 0 011.101-2.655l5.712-5.712 8.367 8.367-5.712 5.712zm10.814 61.405a2.944 2.944 0 01-2.121.878 2.942 2.942 0 01-2.121-.879l-73.905-73.905a2.943 2.943 0 01-.879-2.121c0-.567.152-1.395.879-2.121l19.751-19.752L61.137 194.8a23.667 23.667 0 00-2.35 10.32 23.6 23.6 0 006.958 16.797l3.058 3.057v.001a23.601 23.601 0 0016.797 6.958c3.634 0 7.142-.814 10.32-2.35l22.902 22.902-19.753 19.752zm142.842-77.973h-56.564l20.543-78.973c3.674-14.12 16.429-23.981 31.019-23.981 9.013 0 17.35 3.634 23.475 10.233 18.788 20.244 48.577 25.975 72.436 13.938a88.789 88.789 0 0016.738-10.974l2.707-2.249a7.66 7.66 0 015.801-1.74 7.685 7.685 0 015.283 2.975c2.513 3.253 1.832 8.163-1.516 10.944l-2.382 1.979c-18.664 15.504-42.28 24.042-66.498 24.042-5.259 0-10.634-.421-15.977-1.252A9.991 9.991 0 00266 145.783l-16.972 48.481h-7.117z"/><path d="M246.996 408.8c-2.63 0-5.21 1.069-7.07 2.93a10.072 10.072 0 00-2.93 7.07c0 2.64 1.069 5.21 2.93 7.069 1.86 1.87 4.44 2.931 7.07 2.931s5.21-1.061 7.069-2.931a10.057 10.057 0 002.931-7.069c0-2.631-1.07-5.211-2.931-7.07a10.067 10.067 0 00-7.069-2.93zM122.886 344.14c2.63 0 5.21-1.07 7.07-2.931 1.859-1.859 2.93-4.439 2.93-7.069s-1.07-5.21-2.93-7.07c-1.87-1.86-4.44-2.93-7.07-2.93s-5.21 1.069-7.08 2.93c-1.859 1.86-2.92 4.44-2.92 7.07s1.061 5.21 2.92 7.069a10.1 10.1 0 007.08 2.931z"/></svg>