<svg height="512" viewBox="0 0 512.001 512.001" width="512" xmlns="http://www.w3.org/2000/svg"><path d="M30.071 413.183a10.002 10.002 0 0011.477 8.697c.601-.095 60.401-9.302 91.677-.272 45.103 13.03 75.339 45.369 82.963 54.226C218.124 496.097 235.237 512 256 512c20.767 0 37.883-15.91 39.813-36.18 7.599-8.868 37.663-41.126 82.961-54.213 31.227-9.013 91.08.178 91.68.272 5.604.875 10.808-3.083 11.476-8.697l9.68-81.312c.653-5.484-3.264-10.46-8.748-11.112-5.479-.647-10.458 3.264-11.112 8.747l-8.479 71.224c-19.638-2.381-62.744-6.219-90.046 1.663-34.717 10.029-61.13 29.735-77.225 44.561V192.549c5.449-9.547 32.63-52.549 80-52.549 36.842 0 81.082 12.321 115.183 26.269l-8.793 73.863c-.707 5.935 3.922 11.183 9.942 11.183 4.994 0 9.312-3.736 9.917-8.818l9.68-81.313a10 10 0 00-5.792-10.286c-.688-.313-15.498-7.005-37.498-14.118l7.3-65.674a9.998 9.998 0 00-2.487-7.773A9.995 9.995 0 00466 60c-7.914 0-15.852.464-23.719 1.384l3.693-50.656A10.002 10.002 0 00436 0c-74.017 0-137.389 53.533-149.594 126.717C275.894 190.292 276 188.305 276 190c0 11.028-8.972 20-20 20s-20-8.972-20-20c0-2.102-.685-4.245-10.406-63.284C213.419 53.708 150.195 0 76 0a10.002 10.002 0 00-9.974 10.727l3.693 50.657A204.469 204.469 0 0046 60a10 10 0 00-9.939 11.104l7.3 65.674c-22 7.114-36.81 13.805-37.498 14.118a9.997 9.997 0 00-5.792 10.286zm424.718-332.84l-5.628 50.636C422.327 123.691 397.762 120 376 120c-10.991 0-21.041 1.778-30.167 4.745 30.372-26.141 68.386-41.922 108.956-44.402zm-148.655 49.662c10.033-60.162 59.25-104.754 119.079-109.572l-3.235 44.373c-45.154 9.989-87.121 35.323-117.368 74.345zM256 230a39.741 39.741 0 0020-5.381V472c0 11.028-8.972 20-20 20s-20-8.972-20-20V224.619A39.744 39.744 0 00256 230zm-50.134-99.996l1.524 9.146c-30.275-39.06-72.283-64.371-117.368-74.345l-3.235-44.373c59.83 4.819 109.047 49.411 119.079 109.572zm-39.697-5.258C157.042 121.779 146.991 120 136 120c-21.762 0-46.326 3.691-73.16 10.979l-5.628-50.636c40.409 2.47 78.462 18.156 108.957 44.403zM136 140c47.363 0 74.545 42.993 80 52.548v254.405c-16.094-14.825-42.508-34.531-77.226-44.561-25.047-7.232-64.242-4.791-90.045-1.663L20.817 166.266C54.951 152.301 99.191 140 136 140z"/><circle cx="487" cy="286.001" r="10"/></svg>