<svg xmlns="http://www.w3.org/2000/svg" viewBox="0 0 480 480"><path d="M472.004 0H8a7.998 7.998 0 00-8 7.996V168h16V16h448v176H184v16h288a7.998 7.998 0 008-7.996V8a7.998 7.998 0 00-7.996-8z"/><path d="M264 40h160v16H264zM288 88h160v16H288zM256 136h160v16H256zM255.362 68.974c-5.477-13.165-20.589-19.397-33.753-13.92-.225.094-.449.19-.671.29l-64.868 33.65A39.559 39.559 0 00160 72c0-22.091-17.909-40-40-40S80 49.909 80 72a39.604 39.604 0 008.205 24h-.333c-22.708.152-42.979 14.269-50.996 35.516L15.52 205.125c-5.084 13.206 1.5 28.034 14.707 33.118a25.626 25.626 0 0018.692-.11 25.838 25.838 0 0014.715-15.383L72 196.125v115.783a39.617 39.617 0 00-24-8.205c-22.058-.033-39.967 17.822-40 39.881a39.939 39.939 0 0012.087 28.685A36.855 36.855 0 000 404.961V472a7.998 7.998 0 007.996 8H88a7.998 7.998 0 008-7.996v-67.043A36.77 36.77 0 0081.724 376h60.553a36.764 36.764 0 00-14.276 28.961V472a7.998 7.998 0 007.996 8h80.004a7.998 7.998 0 008-7.996v-67.043a36.855 36.855 0 00-20.087-32.692c15.795-15.417 16.102-40.72.685-56.515a39.966 39.966 0 00-36.598-11.242V140.859l73.441-38.133c13.164-5.476 19.396-20.588 13.92-33.752zM120 48c13.255 0 24 10.745 24 24s-10.745 24-24 24c-13.249-.014-23.986-10.751-24-24 0-13.255 10.745-24 24-24zM48 319.703c13.255 0 24 10.745 24 24s-10.745 24-24 24-24-10.745-24-24c.014-13.249 10.751-23.985 24-24zM80 464H16v-59.039c.016-11.571 9.393-20.947 20.965-20.961h22.07c11.571.014 20.949 9.39 20.965 20.961V464zm128-59.039V464h-64v-59.039c.016-11.571 9.393-20.947 20.965-20.961h22.07c11.572.014 20.949 9.39 20.965 20.961zm-32-85.258c13.249.014 23.986 10.751 24 24 0 13.255-10.745 24-24 24s-24-10.745-24-24 10.745-24 24-24zM240.723 82.32a10.29 10.29 0 01-6.039 5.922l-78.367 40.656A8.002 8.002 0 00152 136v175.908c-14.985 11.08-20.176 31.133-12.448 48.092H128V224h-16v136H84.448a39.63 39.63 0 003.522-16H88V144a8 8 0 00-15.632-2.398L48.48 217.617c-1.81 4.992-7.325 7.572-12.317 5.761a9.677 9.677 0 01-1.027-.441 9.82 9.82 0 01-4.468-12.703l21.355-73.609A38.65 38.65 0 0187.871 112h56.645a7.968 7.968 0 003.684-.898l79.512-41.273a9.848 9.848 0 0112.59 4.664 9.733 9.733 0 01.421 7.827zM331.913 372.269c15.823-15.416 16.153-40.741.737-56.564-15.416-15.823-40.741-16.153-56.564-.737-15.823 15.416-16.153 40.741-.737 56.564.243.249.489.495.738.737A36.857 36.857 0 00256 404.961V472a7.998 7.998 0 007.996 8H344a7.998 7.998 0 008-7.996v-67.043a36.855 36.855 0 00-20.087-32.692zM304 319.703c13.255 0 24 10.745 24 24s-10.745 24-24 24-24-10.745-24-24c.014-13.249 10.751-23.985 24-24zM336 464h-64v-59.039c.016-11.571 9.393-20.947 20.965-20.961h22.07c11.571.014 20.949 9.39 20.965 20.961V464zM459.913 372.269c15.823-15.416 16.153-40.741.737-56.564-15.416-15.823-40.741-16.153-56.564-.737-15.823 15.416-16.153 40.741-.737 56.564.243.249.489.495.738.737A36.857 36.857 0 00384 404.961V472a7.998 7.998 0 007.996 8H472a7.998 7.998 0 008-7.996v-67.043a36.855 36.855 0 00-20.087-32.692zM432 319.703c13.255 0 24 10.745 24 24s-10.745 24-24 24-24-10.745-24-24c.014-13.249 10.751-23.985 24-24zM464 464h-64v-59.039c.016-11.571 9.393-20.947 20.965-20.961h22.07c11.571.014 20.949 9.39 20.965 20.961V464z"/></svg>