<?xml version="1.0" encoding="utf-8"?>
<!-- Generator: Adobe Illustrator 24.1.2, SVG Export Plug-In . SVG Version: 6.00 Build 0)  -->
<svg version="1.1" id="Capa_1" xmlns="http://www.w3.org/2000/svg" xmlns:xlink="http://www.w3.org/1999/xlink" x="0px" y="0px"
	 viewBox="0 0 90.7 90.7" style="enable-background:new 0 0 90.7 90.7;" xml:space="preserve">
<style type="text/css">
	.st0{fill:#FEFEFE;}
</style>
<g>
	<g>
		<path class="st0" d="M82.3,45.9c-0.9-4.1-4.3-7.1-8.3-7.5c-9.5-1.1-19.1-1.1-28.7-1.1c-9.6,0-19.2,0-28.7,1.1
			c-4,0.4-7.3,3.5-8.3,7.5C7.1,51.7,7.1,58,7.1,64s0,12.3,1.3,18.1c0.9,4.1,4.3,7.1,8.3,7.5c9.5,1.1,19.1,1.1,28.7,1.1
			c9.6,0,19.2,0,28.7-1.1c4-0.4,7.3-3.5,8.3-7.5c1.3-5.8,1.3-12.1,1.3-18.1C83.6,58,83.6,51.7,82.3,45.9z M28.9,50.4h-5.5v29.4h-5.1
			V50.4h-5.4v-4.8h16.1V50.4z M42.9,79.8h-4.6v-2.8c-1.8,2.1-3.6,3.1-5.3,3.1c-1.5,0-2.5-0.6-3-1.9c-0.3-0.8-0.4-2-0.4-3.8V54.3h4.6
			v18.8c0,1.1,0,1.6,0,1.8c0.1,0.7,0.5,1.1,1.1,1.1c0.9,0,1.9-0.7,2.9-2.2V54.3h4.6L42.9,79.8L42.9,79.8z M60.5,72.2
			c0,2.4-0.2,4.1-0.5,5.1c-0.6,1.9-1.9,2.9-3.7,2.9c-1.6,0-3.2-0.9-4.8-2.8v2.5h-4.6V45.6h4.6v11.2c1.5-1.8,3.1-2.8,4.8-2.8
			c1.8,0,3.1,1,3.7,2.9c0.3,1,0.5,2.7,0.5,5.1V72.2z M77.9,67.9h-9.3v4.5c0,2.4,0.8,3.5,2.4,3.5c1.1,0,1.8-0.6,2.1-1.9
			c0-0.3,0.1-1.3,0.1-3.1h4.7v0.7c0,1.5-0.1,2.5-0.1,3c-0.2,1-0.5,2-1.1,2.8c-1.3,1.9-3.2,2.8-5.6,2.8c-2.4,0-4.3-0.9-5.6-2.6
			c-1-1.3-1.5-3.3-1.5-6v-8.9c0-2.7,0.4-4.7,1.4-6c1.3-1.7,3.2-2.6,5.5-2.6c2.3,0,4.2,0.9,5.5,2.6c1,1.3,1.4,3.3,1.4,6L77.9,67.9
			L77.9,67.9z"/>
		<path class="st0" d="M71,58.2c-1.5,0-2.3,1.2-2.3,3.5v2.4h4.6v-2.4C73.3,59.3,72.5,58.2,71,58.2z"/>
		<path class="st0" d="M53.8,58.2c-0.8,0-1.5,0.4-2.3,1.1v15.6c0.8,0.8,1.5,1.1,2.3,1.1c1.3,0,2-1.1,2-3.4V61.6
			C55.8,59.3,55.1,58.2,53.8,58.2z"/>
		<path class="st0" d="M56.4,35c1.7,0,3.5-1,5.3-3.2v2.8h4.7V8.8h-4.7v19.7c-1,1.5-2,2.2-3,2.2c-0.6,0-1-0.4-1.1-1.1
			c-0.1-0.2-0.1-0.7-0.1-1.8v-19H53v20.4c0,1.8,0.2,3.1,0.4,3.8C53.9,34.4,54.9,35,56.4,35z"/>
		<path class="st0" d="M23.9,20.6v14H29v-14L35.3,0H30l-3.5,13.6L22.8,0h-5.5c1.1,3.2,2.2,6.4,3.3,9.6
			C22.3,14.5,23.4,18.1,23.9,20.6z"/>
		<path class="st0" d="M42.2,35c2.3,0,4.2-0.9,5.5-2.6c1-1.3,1.5-3.3,1.5-6.1v-9c0-2.8-0.5-4.8-1.5-6.1c-1.3-1.8-3.1-2.6-5.5-2.6
			c-2.3,0-4.1,0.9-5.4,2.6c-1,1.3-1.5,3.3-1.5,6.1v9c0,2.7,0.5,4.8,1.5,6.1C38.1,34.1,39.9,35,42.2,35z M40,16.3
			c0-2.4,0.7-3.6,2.2-3.6s2.2,1.2,2.2,3.6v10.9c0,2.4-0.7,3.6-2.2,3.6S40,29.5,40,27.1V16.3z"/>
	</g>
</g>
</svg>
